<?xml version="1.0" encoding="UTF-8" standalone="no"?>
<!-- Created with Inkscape (http://www.inkscape.org/) -->

<svg
   xmlns:dc="http://purl.org/dc/elements/1.1/"
   xmlns:cc="http://creativecommons.org/ns#"
   xmlns:rdf="http://www.w3.org/1999/02/22-rdf-syntax-ns#"
   xmlns:svg="http://www.w3.org/2000/svg"
   xmlns="http://www.w3.org/2000/svg"
   xmlns:sodipodi="http://sodipodi.sourceforge.net/DTD/sodipodi-0.dtd"
   xmlns:inkscape="http://www.inkscape.org/namespaces/inkscape"
   width="272.99966"
   height="372.72852"
   viewBox="0 0 72.23116 98.617756"
   version="1.1"
   id="svg8"
   sodipodi:docname="about.svg"
   inkscape:version="0.92.3 (2405546, 2018-03-11)">
  <defs
     id="defs2">
    <clipPath
       clipPathUnits="userSpaceOnUse"
       id="clipPath43222-3">
      <rect
         style="fill:#969696;fill-opacity:1;stroke-width:0.08669141"
         id="rect43224-6"
         width="66.145836"
         height="84.666664"
         x="4181.5791"
         y="284.36475"
         ry="2.6458333" />
    </clipPath>
  </defs>
  <sodipodi:namedview
     id="base"
     pagecolor="#ffffff"
     bordercolor="#666666"
     borderopacity="1.0"
     inkscape:pageopacity="0.0"
     inkscape:pageshadow="2"
     inkscape:zoom="0.7"
     inkscape:cx="145.23477"
     inkscape:cy="166.29757"
     inkscape:document-units="px"
     inkscape:current-layer="layer1"
     showgrid="false"
     inkscape:pagecheckerboard="true"
     showborder="true"
     units="px"
     inkscape:window-width="1366"
     inkscape:window-height="696"
     inkscape:window-x="0"
     inkscape:window-y="0"
     inkscape:window-maximized="1"
     fit-margin-top="0"
     fit-margin-left="0"
     fit-margin-right="0"
     fit-margin-bottom="0" />
  <metadata
     id="metadata5">
    <rdf:RDF>
      <cc:Work
         rdf:about="">
        <dc:format>image/svg+xml</dc:format>
        <dc:type
           rdf:resource="http://purl.org/dc/dcmitype/StillImage" />
        <dc:title></dc:title>
      </cc:Work>
    </rdf:RDF>
  </metadata>
  <g
     inkscape:label="Layer 1"
     inkscape:groupmode="layer"
     id="layer1"
     transform="translate(183.5263,-54.923255)">
    <g
       transform="translate(-6635.1875,-352.48073)"
       id="g7393">
      <path
         transform="translate(2270.0821,136.99033)"
         clip-path="url(#clipPath43222-3)"
         inkscape:export-ydpi="96"
         inkscape:export-xdpi="96"
         inkscape:export-filename="/media/im/IMRON1/PRODUCT/WEB/tawon/tawon-code/images/pattern.png"
         inkscape:connector-curvature="0"
         id="circle8777-8-8-6-9-35"
         d="m 4168.0008,279.2436 a 0.81819006,0.81819006 0 0 0 -0.058,0.003 0.81819006,0.81819006 0 0 0 -0.7421,0.88773 0.81819006,0.81819006 0 0 0 0.8886,0.7417 0.81819006,0.81819006 0 0 0 0.7415,-0.88833 0.81819006,0.81819006 0 0 0 -0.8301,-0.74409 z m 4.9382,0 a 0.81819006,0.81819006 0 0 0 -0.8297,0.74456 0.81819006,0.81819006 0 0 0 0.7414,0.88839 0.81819006,0.81819006 0 0 0 0.8885,-0.74204 0.81819006,0.81819006 0 0 0 -0.7423,-0.88758 0.81819006,0.81819006 0 0 0 -0.059,-0.003 z m 4.8795,7e-5 a 0.81819006,0.81819006 0 0 0 -0.058,0.003 0.81819006,0.81819006 0 0 0 -0.7417,0.88775 0.81819006,0.81819006 0 0 0 0.8877,0.74225 0.81819006,0.81819006 0 0 0 0.7421,-0.88842 0.81819006,0.81819006 0 0 0 -0.8306,-0.74438 z m 4.9388,3e-5 a 0.81819006,0.81819006 0 0 0 -0.8304,0.74455 0.81819006,0.81819006 0 0 0 0.7418,0.88872 0.81819006,0.81819006 0 0 0 0.8877,-0.74211 0.81819006,0.81819006 0 0 0 -0.741,-0.88814 0.81819006,0.81819006 0 0 0 -0.058,-0.003 z m 4.8803,-7e-5 a 0.81819006,0.81819006 0 0 0 -0.059,0.003 0.81819006,0.81819006 0 0 0 -0.7418,0.88774 0.81819006,0.81819006 0 0 0 0.8887,0.74168 0.81819006,0.81819006 0 0 0 0.7412,-0.88833 0.81819006,0.81819006 0 0 0 -0.8293,-0.74485 z m 4.9383,-10e-6 a 0.81819006,0.81819006 0 0 0 -0.8305,0.74455 0.81819006,0.81819006 0 0 0 0.7414,0.88844 0.81819006,0.81819006 0 0 0 0.8884,-0.74202 0.81819006,0.81819006 0 0 0 -0.7423,-0.88757 0.81819006,0.81819006 0 0 0 -0.058,-0.003 z m 4.8795,-2e-5 a 0.81819006,0.81819006 0 0 0 -0.058,0.003 0.81819006,0.81819006 0 0 0 -0.7419,0.88773 0.81819006,0.81819006 0 0 0 0.8875,0.74225 0.81819006,0.81819006 0 0 0 0.7421,-0.88834 0.81819006,0.81819006 0 0 0 -0.8306,-0.74433 z m 4.9388,5e-5 a 0.81819006,0.81819006 0 0 0 -0.8304,0.74456 0.81819006,0.81819006 0 0 0 0.7417,0.88872 0.81819006,0.81819006 0 0 0 0.8878,-0.7421 0.81819006,0.81819006 0 0 0 -0.7412,-0.88808 0.81819006,0.81819006 0 0 0 -0.059,-0.003 z m 4.8795,-2e-5 a 0.81819006,0.81819006 0 0 0 -0.059,0.003 0.81819006,0.81819006 0 0 0 -0.7415,0.88774 0.81819006,0.81819006 0 0 0 0.8875,0.74223 0.81819006,0.81819006 0 0 0 0.7422,-0.88833 0.81819006,0.81819006 0 0 0 -0.8305,-0.74432 z m 4.9387,4e-5 a 0.81819006,0.81819006 0 0 0 -0.8301,0.74457 0.81819006,0.81819006 0 0 0 0.7413,0.88836 0.81819006,0.81819006 0 0 0 0.8884,-0.74202 0.81819006,0.81819006 0 0 0 -0.7422,-0.88755 0.81819006,0.81819006 0 0 0 -0.058,-0.003 z m 4.8791,-7e-5 a 0.81819006,0.81819006 0 0 0 -0.058,0.003 0.81819006,0.81819006 0 0 0 -0.7419,0.88773 0.81819006,0.81819006 0 0 0 0.8878,0.74255 0.81819006,0.81819006 0 0 0 0.7416,-0.88842 0.81819006,0.81819006 0 0 0 -0.8306,-0.74439 z m 4.9388,5e-5 a 0.81819006,0.81819006 0 0 0 -0.8303,0.74456 0.81819006,0.81819006 0 0 0 0.7416,0.88865 0.81819006,0.81819006 0 0 0 0.8878,-0.74203 0.81819006,0.81819006 0 0 0 -0.7412,-0.88806 0.81819006,0.81819006 0 0 0 -0.059,-0.003 z m 4.88,3e-5 a 0.81819006,0.81819006 0 0 0 -0.058,0.003 0.81819006,0.81819006 0 0 0 -0.7416,0.88775 0.81819006,0.81819006 0 0 0 0.8877,0.74224 0.81819006,0.81819006 0 0 0 0.7419,-0.88832 0.81819006,0.81819006 0 0 0 -0.8305,-0.74439 z m 4.9391,-8e-5 a 0.81819006,0.81819006 0 0 0 -0.8305,0.74457 0.81819006,0.81819006 0 0 0 0.7418,0.88872 0.81819006,0.81819006 0 0 0 0.8878,-0.74211 0.81819006,0.81819006 0 0 0 -0.7423,-0.88758 0.81819006,0.81819006 0 0 0 -0.058,-0.003 z m 4.8794,7e-5 a 0.81819006,0.81819006 0 0 0 -0.059,0.003 0.81819006,0.81819006 0 0 0 -0.7421,0.88775 0.81819006,0.81819006 0 0 0 0.8887,0.74177 0.81819006,0.81819006 0 0 0 0.7415,-0.88844 0.81819006,0.81819006 0 0 0 -0.8295,-0.74487 z m 4.9382,0 a 0.81819006,0.81819006 0 0 0 -0.8297,0.74448 0.81819006,0.81819006 0 0 0 0.7415,0.88842 0.81819006,0.81819006 0 0 0 0.8883,-0.74201 0.81819006,0.81819006 0 0 0 -0.7424,-0.88758 0.81819006,0.81819006 0 0 0 -0.058,-0.003 z m 4.8797,-2e-5 a 0.81819006,0.81819006 0 0 0 -0.059,0.003 0.81819006,0.81819006 0 0 0 -0.7413,0.88766 0.81819006,0.81819006 0 0 0 0.8875,0.74223 0.81819006,0.81819006 0 0 0 0.742,-0.88832 0.81819006,0.81819006 0 0 0 -0.8306,-0.74431 z m 4.9388,-5e-5 a 0.81819006,0.81819006 0 0 0 -0.8304,0.74457 0.81819006,0.81819006 0 0 0 0.7417,0.88872 0.81819006,0.81819006 0 0 0 0.8878,-0.74209 0.81819006,0.81819006 0 0 0 -0.741,-0.88808 0.81819006,0.81819006 0 0 0 -0.059,-0.003 z m 4.8794,8e-5 a 0.81819006,0.81819006 0 0 0 -0.059,0.003 0.81819006,0.81819006 0 0 0 -0.742,0.88783 0.81819006,0.81819006 0 0 0 0.8888,0.7417 0.81819006,0.81819006 0 0 0 0.7413,-0.88841 0.81819006,0.81819006 0 0 0 -0.8293,-0.74488 z m 4.9382,-10e-6 a 0.81819006,0.81819006 0 0 0 -0.8297,0.74448 0.81819006,0.81819006 0 0 0 0.7415,0.88842 0.81819006,0.81819006 0 0 0 0.8883,-0.74203 0.81819006,0.81819006 0 0 0 -0.7422,-0.88752 0.81819006,0.81819006 0 0 0 -0.059,-0.003 z m -44.211,4.9085 a 0.81819006,0.81819006 0 0 0 -0.058,0.003 0.81819006,0.81819006 0 0 0 -0.7421,0.88774 0.81819006,0.81819006 0 0 0 0.8875,0.74227 0.81819006,0.81819006 0 0 0 0.7421,-0.88843 0.81819006,0.81819006 0 0 0 -0.8309,-0.74469 z m -49.0919,6.5e-4 a 0.81819006,0.81819006 0 0 0 -0.058,0.003 0.81819006,0.81819006 0 0 0 -0.7421,0.88775 0.81819006,0.81819006 0 0 0 0.8887,0.74171 0.81819006,0.81819006 0 0 0 0.7414,-0.88833 0.81819006,0.81819006 0 0 0 -0.8305,-0.74438 z m 4.9394,5e-5 a 0.81819006,0.81819006 0 0 0 -0.8303,0.74448 0.81819006,0.81819006 0 0 0 0.7414,0.88839 0.81819006,0.81819006 0 0 0 0.8885,-0.74211 0.81819006,0.81819006 0 0 0 -0.7423,-0.88759 0.81819006,0.81819006 0 0 0 -0.058,-0.003 z m 4.879,-4e-5 a 0.81819006,0.81819006 0 0 0 -0.058,0.003 0.81819006,0.81819006 0 0 0 -0.7414,0.88774 0.81819006,0.81819006 0 0 0 0.8874,0.74227 0.81819006,0.81819006 0 0 0 0.7422,-0.88843 0.81819006,0.81819006 0 0 0 -0.8305,-0.74437 z m 4.9387,1e-5 a 0.81819006,0.81819006 0 0 0 -0.8303,0.74458 0.81819006,0.81819006 0 0 0 0.7426,0.88789 0.81819006,0.81819006 0 0 0 0.8877,-0.74201 0.81819006,0.81819006 0 0 0 -0.7412,-0.88814 0.81819006,0.81819006 0 0 0 -0.058,-0.003 z m 4.8803,-4e-5 a 0.81819006,0.81819006 0 0 0 -0.059,0.003 0.81819006,0.81819006 0 0 0 -0.7421,0.88782 0.81819006,0.81819006 0 0 0 0.8887,0.74172 0.81819006,0.81819006 0 0 0 0.7415,-0.88841 0.81819006,0.81819006 0 0 0 -0.8293,-0.74486 z m 4.9382,7e-5 a 0.81819006,0.81819006 0 0 0 -0.8304,0.74448 0.81819006,0.81819006 0 0 0 0.7418,0.88876 0.81819006,0.81819006 0 0 0 0.8877,-0.74212 0.81819006,0.81819006 0 0 0 -0.7421,-0.88758 0.81819006,0.81819006 0 0 0 -0.058,-0.003 z m 4.8795,-1e-5 a 0.81819006,0.81819006 0 0 0 -0.059,0.003 0.81819006,0.81819006 0 0 0 -0.7414,0.88774 0.81819006,0.81819006 0 0 0 0.8875,0.74226 0.81819006,0.81819006 0 0 0 0.742,-0.88841 0.81819006,0.81819006 0 0 0 -0.8305,-0.74432 z m 4.9382,0 a 0.81819006,0.81819006 0 0 0 -0.8297,0.74447 0.81819006,0.81819006 0 0 0 0.7414,0.88846 0.81819006,0.81819006 0 0 0 0.8883,-0.74205 0.81819006,0.81819006 0 0 0 -0.7422,-0.88751 0.81819006,0.81819006 0 0 0 -0.059,-0.003 z m 4.8802,-6e-5 a 0.81819006,0.81819006 0 0 0 -0.059,0.003 0.81819006,0.81819006 0 0 0 -0.7421,0.88782 0.81819006,0.81819006 0 0 0 0.8886,0.74172 0.81819006,0.81819006 0 0 0 0.7415,-0.88841 0.81819006,0.81819006 0 0 0 -0.8293,-0.74486 z m 4.9389,3e-5 a 0.81819006,0.81819006 0 0 0 -0.8305,0.74449 0.81819006,0.81819006 0 0 0 0.7418,0.88867 0.81819006,0.81819006 0 0 0 0.8878,-0.7421 0.81819006,0.81819006 0 0 0 -0.7423,-0.88752 0.81819006,0.81819006 0 0 0 -0.058,-0.003 z m 9.8177,-10e-6 a 0.81819006,0.81819006 0 0 0 -0.8297,0.74456 0.81819006,0.81819006 0 0 0 0.7414,0.88838 0.81819006,0.81819006 0 0 0 0.8884,-0.74211 0.81819006,0.81819006 0 0 0 -0.7423,-0.88753 0.81819006,0.81819006 0 0 0 -0.059,-0.003 z m 4.8802,10e-6 a 0.81819006,0.81819006 0 0 0 -0.058,0.003 0.81819006,0.81819006 0 0 0 -0.7413,0.88774 0.81819006,0.81819006 0 0 0 0.8875,0.74227 0.81819006,0.81819006 0 0 0 0.7422,-0.88841 0.81819006,0.81819006 0 0 0 -0.8306,-0.74439 z m 4.9381,0 a 0.81819006,0.81819006 0 0 0 -0.8304,0.74449 0.81819006,0.81819006 0 0 0 0.7419,0.88869 0.81819006,0.81819006 0 0 0 0.8875,-0.74202 0.81819006,0.81819006 0 0 0 -0.741,-0.88808 0.81819006,0.81819006 0 0 0 -0.058,-0.003 z m 4.8795,-10e-6 a 0.81819006,0.81819006 0 0 0 -0.058,0.003 0.81819006,0.81819006 0 0 0 -0.7422,0.88775 0.81819006,0.81819006 0 0 0 0.8877,0.74226 0.81819006,0.81819006 0 0 0 0.7422,-0.88842 0.81819006,0.81819006 0 0 0 -0.8306,-0.74436 z m 4.9397,-2e-5 a 0.81819006,0.81819006 0 0 0 -0.8305,0.74455 0.81819006,0.81819006 0 0 0 0.7416,0.88846 0.81819006,0.81819006 0 0 0 0.8883,-0.74211 0.81819006,0.81819006 0 0 0 -0.7422,-0.88758 0.81819006,0.81819006 0 0 0 -0.058,-0.003 z m 4.8789,2e-5 a 0.81819006,0.81819006 0 0 0 -0.059,0.003 0.81819006,0.81819006 0 0 0 -0.7414,0.88775 0.81819006,0.81819006 0 0 0 0.8875,0.74225 0.81819006,0.81819006 0 0 0 0.7421,-0.88841 0.81819006,0.81819006 0 0 0 -0.8305,-0.74431 z m 4.9387,5e-5 a 0.81819006,0.81819006 0 0 0 -0.8303,0.74447 0.81819006,0.81819006 0 0 0 0.7417,0.88874 0.81819006,0.81819006 0 0 0 0.8878,-0.74211 0.81819006,0.81819006 0 0 0 -0.741,-0.88807 0.81819006,0.81819006 0 0 0 -0.059,-0.003 z m 4.8797,-4e-5 a 0.81819006,0.81819006 0 0 0 -0.058,0.003 0.81819006,0.81819006 0 0 0 -0.7418,0.88774 0.81819006,0.81819006 0 0 0 0.8887,0.74171 0.81819006,0.81819006 0 0 0 0.7413,-0.88832 0.81819006,0.81819006 0 0 0 -0.8304,-0.74432 z m 4.9388,-3e-5 a 0.81819006,0.81819006 0 0 0 -0.8304,0.74455 0.81819006,0.81819006 0 0 0 0.7417,0.88876 0.81819006,0.81819006 0 0 0 0.8877,-0.74211 0.81819006,0.81819006 0 0 0 -0.7421,-0.88753 0.81819006,0.81819006 0 0 0 -0.058,-0.003 z m -88.3649,4.9086 a 0.81819006,0.81819006 0 0 0 -0.8302,0.74515 0.81819006,0.81819006 0 0 0 0.7416,0.88866 0.81819006,0.81819006 0 0 0 0.8876,-0.74201 0.81819006,0.81819006 0 0 0 -0.7423,-0.88753 0.81819006,0.81819006 0 0 0 -0.058,-0.003 z m 4.8803,0 a 0.81819006,0.81819006 0 0 0 -0.059,0.003 0.81819006,0.81819006 0 0 0 -0.742,0.88841 0.81819006,0.81819006 0 0 0 0.8884,0.74147 0.81819006,0.81819006 0 0 0 0.7414,-0.88774 0.81819006,0.81819006 0 0 0 -0.8296,-0.74518 z m 19.6361,0 a 0.81819006,0.81819006 0 0 0 -0.059,0.003 0.81819006,0.81819006 0 0 0 -0.7414,0.88774 0.81819006,0.81819006 0 0 0 0.8874,0.74224 0.81819006,0.81819006 0 0 0 0.7422,-0.88833 0.81819006,0.81819006 0 0 0 -0.8301,-0.74548 z m 29.4551,-3e-5 a 0.81819006,0.81819006 0 0 0 -0.058,0.003 0.81819006,0.81819006 0 0 0 -0.742,0.88774 0.81819006,0.81819006 0 0 0 0.8885,0.7417 0.81819006,0.81819006 0 0 0 0.7416,-0.88834 0.81819006,0.81819006 0 0 0 -0.8297,-0.74524 z m 14.7565,9e-5 a 0.81819006,0.81819006 0 0 0 -0.8304,0.74507 0.81819006,0.81819006 0 0 0 0.7418,0.88873 0.81819006,0.81819006 0 0 0 0.8878,-0.74212 0.81819006,0.81819006 0 0 0 -0.7423,-0.88757 0.81819006,0.81819006 0 0 0 -0.058,-0.003 z m 4.8802,-6e-5 a 0.81819006,0.81819006 0 0 0 -0.059,0.003 0.81819006,0.81819006 0 0 0 -0.7418,0.88774 0.81819006,0.81819006 0 0 0 0.8886,0.74171 0.81819006,0.81819006 0 0 0 0.7413,-0.88834 0.81819006,0.81819006 0 0 0 -0.8296,-0.74517 z m 9.8179,-3e-5 a 0.81819006,0.81819006 0 0 0 -0.058,0.003 0.81819006,0.81819006 0 0 0 -0.7419,0.88842 0.81819006,0.81819006 0 0 0 0.8875,0.74225 0.81819006,0.81819006 0 0 0 0.7421,-0.88833 0.81819006,0.81819006 0 0 0 -0.83,-0.74547 z m -88.3649,6.2e-4 a 0.81819006,0.81819006 0 0 0 -0.058,0.003 0.81819006,0.81819006 0 0 0 -0.7422,0.88775 0.81819006,0.81819006 0 0 0 0.8875,0.74224 0.81819006,0.81819006 0 0 0 0.7422,-0.88842 0.81819006,0.81819006 0 0 0 -0.8305,-0.74438 z m 14.7572,5e-5 a 0.81819006,0.81819006 0 0 0 -0.8297,0.74447 0.81819006,0.81819006 0 0 0 0.7414,0.88843 0.81819006,0.81819006 0 0 0 0.8883,-0.74202 0.81819006,0.81819006 0 0 0 -0.7422,-0.8876 0.81819006,0.81819006 0 0 0 -0.058,-0.003 z m 4.8796,-2e-5 a 0.81819006,0.81819006 0 0 0 -0.058,0.003 0.81819006,0.81819006 0 0 0 -0.7418,0.88775 0.81819006,0.81819006 0 0 0 0.8874,0.74225 0.81819006,0.81819006 0 0 0 0.742,-0.88834 0.81819006,0.81819006 0 0 0 -0.8304,-0.74433 z m 4.9388,4e-5 a 0.81819006,0.81819006 0 0 0 -0.8304,0.74456 0.81819006,0.81819006 0 0 0 0.7416,0.88872 0.81819006,0.81819006 0 0 0 0.8878,-0.74203 0.81819006,0.81819006 0 0 0 -0.7412,-0.88808 0.81819006,0.81819006 0 0 0 -0.058,-0.003 z m 9.8177,-2e-5 a 0.81819006,0.81819006 0 0 0 -0.8297,0.74447 0.81819006,0.81819006 0 0 0 0.7414,0.88843 0.81819006,0.81819006 0 0 0 0.8883,-0.74202 0.81819006,0.81819006 0 0 0 -0.7422,-0.88753 0.81819006,0.81819006 0 0 0 -0.059,-0.003 z m 4.8801,2e-5 a 0.81819006,0.81819006 0 0 0 -0.059,0.003 0.81819006,0.81819006 0 0 0 -0.7419,0.88783 0.81819006,0.81819006 0 0 0 0.8886,0.7417 0.81819006,0.81819006 0 0 0 0.7414,-0.88841 0.81819006,0.81819006 0 0 0 -0.8293,-0.74488 z m 4.939,-4e-5 a 0.81819006,0.81819006 0 0 0 -0.8303,0.74455 0.81819006,0.81819006 0 0 0 0.7418,0.88867 0.81819006,0.81819006 0 0 0 0.8877,-0.7421 0.81819006,0.81819006 0 0 0 -0.7412,-0.88808 0.81819006,0.81819006 0 0 0 -0.059,-0.003 z m 4.8795,-2e-5 a 0.81819006,0.81819006 0 0 0 -0.059,0.003 0.81819006,0.81819006 0 0 0 -0.7414,0.88776 0.81819006,0.81819006 0 0 0 0.8875,0.74223 0.81819006,0.81819006 0 0 0 0.7421,-0.88832 0.81819006,0.81819006 0 0 0 -0.8305,-0.7444 z m 4.9388,4e-5 a 0.81819006,0.81819006 0 0 0 -0.8303,0.74456 0.81819006,0.81819006 0 0 0 0.7414,0.88837 0.81819006,0.81819006 0 0 0 0.8884,-0.74203 0.81819006,0.81819006 0 0 0 -0.7423,-0.88754 0.81819006,0.81819006 0 0 0 -0.058,-0.003 z m 9.8177,-2e-5 a 0.81819006,0.81819006 0 0 0 -0.8302,0.74455 0.81819006,0.81819006 0 0 0 0.7418,0.88866 0.81819006,0.81819006 0 0 0 0.8876,-0.74211 0.81819006,0.81819006 0 0 0 -0.7411,-0.88806 0.81819006,0.81819006 0 0 0 -0.059,-0.003 z m 4.8795,-2e-5 a 0.81819006,0.81819006 0 0 0 -0.058,0.003 0.81819006,0.81819006 0 0 0 -0.7422,0.88776 0.81819006,0.81819006 0 0 0 0.8877,0.74223 0.81819006,0.81819006 0 0 0 0.7422,-0.88842 0.81819006,0.81819006 0 0 0 -0.8307,-0.74438 z m 14.7574,4e-5 a 0.81819006,0.81819006 0 0 0 -0.8298,0.74448 0.81819006,0.81819006 0 0 0 0.7414,0.88842 0.81819006,0.81819006 0 0 0 0.8883,-0.74202 0.81819006,0.81819006 0 0 0 -0.7422,-0.88752 0.81819006,0.81819006 0 0 0 -0.059,-0.003 z m 9.8183,2e-5 a 0.81819006,0.81819006 0 0 0 -0.8304,0.74456 0.81819006,0.81819006 0 0 0 0.7425,0.88788 0.81819006,0.81819006 0 0 0 0.8878,-0.7421 0.81819006,0.81819006 0 0 0 -0.7411,-0.88807 0.81819006,0.81819006 0 0 0 -0.059,-0.003 z m -93.303,4.9085 a 0.81819006,0.81819006 0 0 0 -0.058,0.003 0.81819006,0.81819006 0 0 0 -0.7416,0.88775 0.81819006,0.81819006 0 0 0 0.8875,0.74225 0.81819006,0.81819006 0 0 0 0.7421,-0.88832 0.81819006,0.81819006 0 0 0 -0.83,-0.74554 z m 4.9382,0 a 0.81819006,0.81819006 0 0 0 -0.8302,0.74513 0.81819006,0.81819006 0 0 0 0.7416,0.88869 0.81819006,0.81819006 0 0 0 0.8878,-0.74211 0.81819006,0.81819006 0 0 0 -0.7414,-0.88837 0.81819006,0.81819006 0 0 0 -0.059,-0.003 z m 4.8803,0 a 0.81819006,0.81819006 0 0 0 -0.059,0.003 0.81819006,0.81819006 0 0 0 -0.7421,0.88775 0.81819006,0.81819006 0 0 0 0.8887,0.74176 0.81819006,0.81819006 0 0 0 0.7414,-0.88841 0.81819006,0.81819006 0 0 0 -0.8295,-0.74518 z m 4.9381,0 a 0.81819006,0.81819006 0 0 0 -0.8297,0.74513 0.81819006,0.81819006 0 0 0 0.7415,0.88845 0.81819006,0.81819006 0 0 0 0.8883,-0.7421 0.81819006,0.81819006 0 0 0 -0.7421,-0.88759 0.81819006,0.81819006 0 0 0 -0.058,-0.003 z m 4.8795,5e-5 a 0.81819006,0.81819006 0 0 0 -0.058,0.003 0.81819006,0.81819006 0 0 0 -0.7414,0.88842 0.81819006,0.81819006 0 0 0 0.8881,0.74111 0.81819006,0.81819006 0 0 0 0.7421,-0.88784 0.81819006,0.81819006 0 0 0 -0.83,-0.74547 z m 4.939,-2e-5 a 0.81819006,0.81819006 0 0 0 -0.8306,0.74514 0.81819006,0.81819006 0 0 0 0.7427,0.8879 0.81819006,0.81819006 0 0 0 0.8877,-0.74202 0.81819006,0.81819006 0 0 0 -0.7412,-0.88808 0.81819006,0.81819006 0 0 0 -0.059,-0.003 z m 9.8183,2e-5 a 0.81819006,0.81819006 0 0 0 -0.8304,0.74506 0.81819006,0.81819006 0 0 0 0.7417,0.88876 0.81819006,0.81819006 0 0 0 0.8878,-0.74212 0.81819006,0.81819006 0 0 0 -0.7423,-0.88752 0.81819006,0.81819006 0 0 0 -0.058,-0.003 z m 4.8795,-2e-5 a 0.81819006,0.81819006 0 0 0 -0.058,0.003 0.81819006,0.81819006 0 0 0 -0.7421,0.88835 0.81819006,0.81819006 0 0 0 0.8876,0.74225 0.81819006,0.81819006 0 0 0 0.7419,-0.88842 0.81819006,0.81819006 0 0 0 -0.8299,-0.74546 z m 4.9383,0 a 0.81819006,0.81819006 0 0 0 -0.8297,0.74514 0.81819006,0.81819006 0 0 0 0.7413,0.88837 0.81819006,0.81819006 0 0 0 0.8884,-0.74201 0.81819006,0.81819006 0 0 0 -0.7416,-0.88867 0.81819006,0.81819006 0 0 0 -0.058,-0.003 z m 4.8801,2e-5 a 0.81819006,0.81819006 0 0 0 -0.059,0.003 0.81819006,0.81819006 0 0 0 -0.7413,0.88832 0.81819006,0.81819006 0 0 0 0.8879,0.74111 0.81819006,0.81819006 0 0 0 0.7421,-0.88775 0.81819006,0.81819006 0 0 0 -0.8299,-0.74554 z m 4.9388,-5e-5 a 0.81819006,0.81819006 0 0 0 -0.8303,0.74515 0.81819006,0.81819006 0 0 0 0.7416,0.88869 0.81819006,0.81819006 0 0 0 0.8878,-0.74212 0.81819006,0.81819006 0 0 0 -0.7423,-0.88752 0.81819006,0.81819006 0 0 0 -0.058,-0.003 z m 9.8177,7e-5 a 0.81819006,0.81819006 0 0 0 -0.8297,0.74515 0.81819006,0.81819006 0 0 0 0.7414,0.88838 0.81819006,0.81819006 0 0 0 0.8885,-0.74202 0.81819006,0.81819006 0 0 0 -0.7422,-0.88759 0.81819006,0.81819006 0 0 0 -0.058,-0.003 z m 4.8802,0 a 0.81819006,0.81819006 0 0 0 -0.059,0.003 0.81819006,0.81819006 0 0 0 -0.7414,0.88842 0.81819006,0.81819006 0 0 0 0.888,0.74111 0.81819006,0.81819006 0 0 0 0.7421,-0.88783 0.81819006,0.81819006 0 0 0 -0.83,-0.74547 z m 4.9382,0 a 0.81819006,0.81819006 0 0 0 -0.8302,0.74506 0.81819006,0.81819006 0 0 0 0.7417,0.88875 0.81819006,0.81819006 0 0 0 0.8877,-0.74211 0.81819006,0.81819006 0 0 0 -0.7415,-0.88843 0.81819006,0.81819006 0 0 0 -0.058,-0.003 z m 9.8185,-7e-5 a 0.81819006,0.81819006 0 0 0 -0.8306,0.74515 0.81819006,0.81819006 0 0 0 0.7416,0.88845 0.81819006,0.81819006 0 0 0 0.8883,-0.74204 0.81819006,0.81819006 0 0 0 -0.7417,-0.88872 0.81819006,0.81819006 0 0 0 -0.058,-0.003 z m 4.8794,7e-5 a 0.81819006,0.81819006 0 0 0 -0.059,0.003 0.81819006,0.81819006 0 0 0 -0.7414,0.88774 0.81819006,0.81819006 0 0 0 0.8875,0.74226 0.81819006,0.81819006 0 0 0 0.742,-0.88841 0.81819006,0.81819006 0 0 0 -0.8301,-0.74547 z m 4.939,-4e-5 a 0.81819006,0.81819006 0 0 0 -0.8305,0.74514 0.81819006,0.81819006 0 0 0 0.7425,0.8879 0.81819006,0.81819006 0 0 0 0.8876,-0.74202 0.81819006,0.81819006 0 0 0 -0.741,-0.88808 0.81819006,0.81819006 0 0 0 -0.058,-0.003 z m -63.8485,6.1e-4 a 0.81819006,0.81819006 0 0 0 -0.059,0.003 0.81819006,0.81819006 0 0 0 -0.742,0.88774 0.81819006,0.81819006 0 0 0 0.8888,0.74172 0.81819006,0.81819006 0 0 0 0.7413,-0.88834 0.81819006,0.81819006 0 0 0 -0.8294,-0.74486 z m 29.4545,2e-5 a 0.81819006,0.81819006 0 0 0 -0.058,0.003 0.81819006,0.81819006 0 0 0 -0.7422,0.88783 0.81819006,0.81819006 0 0 0 0.8886,0.74171 0.81819006,0.81819006 0 0 0 0.7417,-0.88842 0.81819006,0.81819006 0 0 0 -0.8305,-0.74437 z m 19.6373,-2e-5 a 0.81819006,0.81819006 0 0 0 -0.059,0.003 0.81819006,0.81819006 0 0 0 -0.7418,0.88773 0.81819006,0.81819006 0 0 0 0.8886,0.74173 0.81819006,0.81819006 0 0 0 0.7413,-0.88835 0.81819006,0.81819006 0 0 0 -0.8293,-0.74487 z m -78.5465,4.90863 a 0.81819006,0.81819006 0 0 0 -0.058,0.003 0.81819006,0.81819006 0 0 0 -0.742,0.88842 0.81819006,0.81819006 0 0 0 0.8882,0.7414 0.81819006,0.81819006 0 0 0 0.7422,-0.88774 0.81819006,0.81819006 0 0 0 -0.8299,-0.74554 z m 4.9383,0 a 0.81819006,0.81819006 0 0 0 -0.8304,0.74514 0.81819006,0.81819006 0 0 0 0.7422,0.88753 0.81819006,0.81819006 0 0 0 0.8878,-0.74144 0.81819006,0.81819006 0 0 0 -0.7414,-0.88839 0.81819006,0.81819006 0 0 0 -0.059,-0.003 z m 4.8796,-2e-5 a 0.81819006,0.81819006 0 0 0 -0.058,0.003 0.81819006,0.81819006 0 0 0 -0.7422,0.88775 0.81819006,0.81819006 0 0 0 0.8876,0.74225 0.81819006,0.81819006 0 0 0 0.7421,-0.88827 0.81819006,0.81819006 0 0 0 -0.8299,-0.74553 z m 4.9388,2e-5 a 0.81819006,0.81819006 0 0 0 -0.8304,0.74505 0.81819006,0.81819006 0 0 0 0.7424,0.88759 0.81819006,0.81819006 0 0 0 0.8877,-0.74143 0.81819006,0.81819006 0 0 0 -0.7417,-0.88875 0.81819006,0.81819006 0 0 0 -0.058,-0.003 z m 4.8796,-4e-5 a 0.81819006,0.81819006 0 0 0 -0.059,0.003 0.81819006,0.81819006 0 0 0 -0.7413,0.88833 0.81819006,0.81819006 0 0 0 0.8875,0.74225 0.81819006,0.81819006 0 0 0 0.7419,-0.88834 0.81819006,0.81819006 0 0 0 -0.8298,-0.74548 z m 4.9388,5e-5 a 0.81819006,0.81819006 0 0 0 -0.8299,0.74515 0.81819006,0.81819006 0 0 0 0.7416,0.88844 0.81819006,0.81819006 0 0 0 0.8883,-0.74212 0.81819006,0.81819006 0 0 0 -0.7417,-0.88869 0.81819006,0.81819006 0 0 0 -0.059,-0.003 z m 4.8795,-10e-6 a 0.81819006,0.81819006 0 0 0 -0.058,0.003 0.81819006,0.81819006 0 0 0 -0.7421,0.88842 0.81819006,0.81819006 0 0 0 0.8884,0.7414 0.81819006,0.81819006 0 0 0 0.7415,-0.88774 0.81819006,0.81819006 0 0 0 -0.8301,-0.74547 z m 4.9389,-5e-5 a 0.81819006,0.81819006 0 0 0 -0.8305,0.74515 0.81819006,0.81819006 0 0 0 0.7417,0.88873 0.81819006,0.81819006 0 0 0 0.8876,-0.74204 0.81819006,0.81819006 0 0 0 -0.7414,-0.88837 0.81819006,0.81819006 0 0 0 -0.059,-0.003 z m 4.8795,-10e-6 a 0.81819006,0.81819006 0 0 0 -0.059,0.003 0.81819006,0.81819006 0 0 0 -0.7415,0.88775 0.81819006,0.81819006 0 0 0 0.8875,0.74223 0.81819006,0.81819006 0 0 0 0.742,-0.88832 0.81819006,0.81819006 0 0 0 -0.8298,-0.74549 z m 4.9382,8e-5 a 0.81819006,0.81819006 0 0 0 -0.8296,0.74516 0.81819006,0.81819006 0 0 0 0.741,0.88805 0.81819006,0.81819006 0 0 0 0.8885,-0.74144 0.81819006,0.81819006 0 0 0 -0.7417,-0.88868 0.81819006,0.81819006 0 0 0 -0.059,-0.003 z m 4.8802,-6e-5 a 0.81819006,0.81819006 0 0 0 -0.059,0.003 0.81819006,0.81819006 0 0 0 -0.7419,0.88842 0.81819006,0.81819006 0 0 0 0.8883,0.74141 0.81819006,0.81819006 0 0 0 0.7416,-0.88776 0.81819006,0.81819006 0 0 0 -0.8296,-0.74523 z m 4.9382,-1e-5 a 0.81819006,0.81819006 0 0 0 -0.8303,0.74515 0.81819006,0.81819006 0 0 0 0.7421,0.88753 0.81819006,0.81819006 0 0 0 0.8878,-0.74145 0.81819006,0.81819006 0 0 0 -0.7414,-0.88839 0.81819006,0.81819006 0 0 0 -0.058,-0.003 z m 4.8796,-10e-6 a 0.81819006,0.81819006 0 0 0 -0.058,0.003 0.81819006,0.81819006 0 0 0 -0.7421,0.88842 0.81819006,0.81819006 0 0 0 0.888,0.74109 0.81819006,0.81819006 0 0 0 0.742,-0.88774 0.81819006,0.81819006 0 0 0 -0.8307,-0.7447 z m 4.9393,6e-5 a 0.81819006,0.81819006 0 0 0 -0.8303,0.74506 0.81819006,0.81819006 0 0 0 0.7413,0.88837 0.81819006,0.81819006 0 0 0 0.8886,-0.74202 0.81819006,0.81819006 0 0 0 -0.7417,-0.88875 0.81819006,0.81819006 0 0 0 -0.058,-0.003 z m 4.8797,-2e-5 a 0.81819006,0.81819006 0 0 0 -0.058,0.003 0.81819006,0.81819006 0 0 0 -0.7422,0.88843 0.81819006,0.81819006 0 0 0 0.8889,0.74175 0.81819006,0.81819006 0 0 0 0.7414,-0.88842 0.81819006,0.81819006 0 0 0 -0.8297,-0.74517 z m 4.9382,0 a 0.81819006,0.81819006 0 0 0 -0.8305,0.74515 0.81819006,0.81819006 0 0 0 0.7423,0.88757 0.81819006,0.81819006 0 0 0 0.8877,-0.74142 0.81819006,0.81819006 0 0 0 -0.7414,-0.88845 0.81819006,0.81819006 0 0 0 -0.058,-0.003 z m 4.8796,-2e-5 a 0.81819006,0.81819006 0 0 0 -0.058,0.003 0.81819006,0.81819006 0 0 0 -0.7419,0.88842 0.81819006,0.81819006 0 0 0 0.8882,0.7411 0.81819006,0.81819006 0 0 0 0.7419,-0.88775 0.81819006,0.81819006 0 0 0 -0.83,-0.74546 z m 4.9387,4e-5 a 0.81819006,0.81819006 0 0 0 -0.8303,0.74506 0.81819006,0.81819006 0 0 0 0.7423,0.88758 0.81819006,0.81819006 0 0 0 0.8877,-0.74141 0.81819006,0.81819006 0 0 0 -0.7418,-0.88876 0.81819006,0.81819006 0 0 0 -0.058,-0.003 z m 9.8185,-6e-5 a 0.81819006,0.81819006 0 0 0 -0.8298,0.74524 0.81819006,0.81819006 0 0 0 0.7414,0.88837 0.81819006,0.81819006 0 0 0 0.8884,-0.7421 0.81819006,0.81819006 0 0 0 -0.7416,-0.88869 0.81819006,0.81819006 0 0 0 -0.059,-0.003 z m -4.9388,5.9e-4 a 0.81819006,0.81819006 0 0 0 -0.059,0.003 0.81819006,0.81819006 0 0 0 -0.7415,0.88775 0.81819006,0.81819006 0 0 0 0.8877,0.74222 0.81819006,0.81819006 0 0 0 0.742,-0.88831 0.81819006,0.81819006 0 0 0 -0.8306,-0.74433 z m -88.3643,4.90862 a 0.81819006,0.81819006 0 0 0 -0.058,0.003 0.81819006,0.81819006 0 0 0 -0.7421,0.88842 0.81819006,0.81819006 0 0 0 0.8884,0.74139 0.81819006,0.81819006 0 0 0 0.7416,-0.88775 0.81819006,0.81819006 0 0 0 -0.8296,-0.74523 z m 4.9382,0 a 0.81819006,0.81819006 0 0 0 -0.8297,0.74515 0.81819006,0.81819006 0 0 0 0.7411,0.88809 0.81819006,0.81819006 0 0 0 0.8884,-0.74144 0.81819006,0.81819006 0 0 0 -0.7418,-0.88874 0.81819006,0.81819006 0 0 0 -0.058,-0.003 z m 4.8796,-3e-5 a 0.81819006,0.81819006 0 0 0 -0.058,0.003 0.81819006,0.81819006 0 0 0 -0.7416,0.88833 0.81819006,0.81819006 0 0 0 0.8881,0.74112 0.81819006,0.81819006 0 0 0 0.7421,-0.88775 0.81819006,0.81819006 0 0 0 -0.83,-0.74554 z m 4.9388,3e-5 a 0.81819006,0.81819006 0 0 0 -0.8304,0.74506 0.81819006,0.81819006 0 0 0 0.7424,0.88759 0.81819006,0.81819006 0 0 0 0.8877,-0.74144 0.81819006,0.81819006 0 0 0 -0.7414,-0.88842 0.81819006,0.81819006 0 0 0 -0.058,-0.003 z m 4.88,2e-5 a 0.81819006,0.81819006 0 0 0 -0.059,0.003 0.81819006,0.81819006 0 0 0 -0.742,0.88833 0.81819006,0.81819006 0 0 0 0.8883,0.74138 0.81819006,0.81819006 0 0 0 0.7414,-0.88774 0.81819006,0.81819006 0 0 0 -0.8295,-0.74516 z m 4.9384,0 a 0.81819006,0.81819006 0 0 0 -0.8305,0.74506 0.81819006,0.81819006 0 0 0 0.7412,0.88813 0.81819006,0.81819006 0 0 0 0.8884,-0.74144 0.81819006,0.81819006 0 0 0 -0.7418,-0.88872 0.81819006,0.81819006 0 0 0 -0.058,-0.003 z m 4.8796,-2e-5 a 0.81819006,0.81819006 0 0 0 -0.058,0.003 0.81819006,0.81819006 0 0 0 -0.7419,0.88833 0.81819006,0.81819006 0 0 0 0.8881,0.74109 0.81819006,0.81819006 0 0 0 0.7418,-0.88774 0.81819006,0.81819006 0 0 0 -0.8299,-0.74547 z m 4.9388,-3e-5 a 0.81819006,0.81819006 0 0 0 -0.8305,0.74515 0.81819006,0.81819006 0 0 0 0.7424,0.8876 0.81819006,0.81819006 0 0 0 0.8877,-0.74145 0.81819006,0.81819006 0 0 0 -0.7414,-0.88838 0.81819006,0.81819006 0 0 0 -0.059,-0.003 z m 4.8794,5e-5 a 0.81819006,0.81819006 0 0 0 -0.059,0.003 0.81819006,0.81819006 0 0 0 -0.7414,0.88841 0.81819006,0.81819006 0 0 0 0.888,0.7411 0.81819006,0.81819006 0 0 0 0.7421,-0.88782 0.81819006,0.81819006 0 0 0 -0.83,-0.74548 z m 4.939,-3e-5 a 0.81819006,0.81819006 0 0 0 -0.8303,0.74515 0.81819006,0.81819006 0 0 0 0.742,0.88752 0.81819006,0.81819006 0 0 0 0.8878,-0.74144 0.81819006,0.81819006 0 0 0 -0.7416,-0.88865 0.81819006,0.81819006 0 0 0 -0.058,-0.003 z m 4.8789,10e-6 a 0.81819006,0.81819006 0 0 0 -0.058,0.003 0.81819006,0.81819006 0 0 0 -0.7419,0.88833 0.81819006,0.81819006 0 0 0 0.8887,0.74172 0.81819006,0.81819006 0 0 0 0.7416,-0.88843 0.81819006,0.81819006 0 0 0 -0.8301,-0.74552 z m 4.9388,-3e-5 a 0.81819006,0.81819006 0 0 0 -0.8303,0.74515 0.81819006,0.81819006 0 0 0 0.7422,0.88752 0.81819006,0.81819006 0 0 0 0.8885,-0.74144 0.81819006,0.81819006 0 0 0 -0.7417,-0.88867 0.81819006,0.81819006 0 0 0 -0.059,-0.003 z m 4.8802,2e-5 a 0.81819006,0.81819006 0 0 0 -0.058,0.003 0.81819006,0.81819006 0 0 0 -0.7415,0.88832 0.81819006,0.81819006 0 0 0 0.8882,0.74111 0.81819006,0.81819006 0 0 0 0.7421,-0.88774 0.81819006,0.81819006 0 0 0 -0.8301,-0.74553 z m 4.9387,10e-6 a 0.81819006,0.81819006 0 0 0 -0.8303,0.74507 0.81819006,0.81819006 0 0 0 0.7424,0.88758 0.81819006,0.81819006 0 0 0 0.8877,-0.74143 0.81819006,0.81819006 0 0 0 -0.7426,-0.88788 0.81819006,0.81819006 0 0 0 -0.058,-0.003 z m 4.8797,-10e-6 a 0.81819006,0.81819006 0 0 0 -0.058,0.003 0.81819006,0.81819006 0 0 0 -0.742,0.88832 0.81819006,0.81819006 0 0 0 0.8884,0.74146 0.81819006,0.81819006 0 0 0 0.7414,-0.88774 0.81819006,0.81819006 0 0 0 -0.8296,-0.74518 z m 4.9382,0 a 0.81819006,0.81819006 0 0 0 -0.8298,0.74515 0.81819006,0.81819006 0 0 0 0.7412,0.88812 0.81819006,0.81819006 0 0 0 0.8883,-0.74142 0.81819006,0.81819006 0 0 0 -0.7417,-0.88874 0.81819006,0.81819006 0 0 0 -0.058,-0.003 z m 4.8796,-2e-5 a 0.81819006,0.81819006 0 0 0 -0.059,0.003 0.81819006,0.81819006 0 0 0 -0.7413,0.88834 0.81819006,0.81819006 0 0 0 0.888,0.74107 0.81819006,0.81819006 0 0 0 0.7419,-0.88773 0.81819006,0.81819006 0 0 0 -0.8298,-0.74546 z m 4.9388,5e-5 a 0.81819006,0.81819006 0 0 0 -0.8304,0.74506 0.81819006,0.81819006 0 0 0 0.7423,0.88758 0.81819006,0.81819006 0 0 0 0.8877,-0.74144 0.81819006,0.81819006 0 0 0 -0.7414,-0.88836 0.81819006,0.81819006 0 0 0 -0.058,-0.003 z m 4.8796,-3e-5 a 0.81819006,0.81819006 0 0 0 -0.059,0.003 0.81819006,0.81819006 0 0 0 -0.742,0.88832 0.81819006,0.81819006 0 0 0 0.8885,0.74141 0.81819006,0.81819006 0 0 0 0.7415,-0.88776 0.81819006,0.81819006 0 0 0 -0.8298,-0.74517 z m 4.9388,-5e-5 a 0.81819006,0.81819006 0 0 0 -0.8305,0.74516 0.81819006,0.81819006 0 0 0 0.7411,0.88814 0.81819006,0.81819006 0 0 0 0.8884,-0.74144 0.81819006,0.81819006 0 0 0 -0.7416,-0.88868 0.81819006,0.81819006 0 0 0 -0.058,-0.003 z m -93.3038,4.90929 a 0.81819006,0.81819006 0 0 0 -0.058,0.003 0.81819006,0.81819006 0 0 0 -0.7421,0.88841 0.81819006,0.81819006 0 0 0 0.8881,0.7411 0.81819006,0.81819006 0 0 0 0.7421,-0.88774 0.81819006,0.81819006 0 0 0 -0.83,-0.74554 z m 4.9397,-3e-5 a 0.81819006,0.81819006 0 0 0 -0.8305,0.74507 0.81819006,0.81819006 0 0 0 0.7411,0.88806 0.81819006,0.81819006 0 0 0 0.8884,-0.74151 0.81819006,0.81819006 0 0 0 -0.7425,-0.88789 0.81819006,0.81819006 0 0 0 -0.058,-0.003 z m 4.8788,-3e-5 a 0.81819006,0.81819006 0 0 0 -0.058,0.003 0.81819006,0.81819006 0 0 0 -0.7416,0.88833 0.81819006,0.81819006 0 0 0 0.888,0.74111 0.81819006,0.81819006 0 0 0 0.7421,-0.88776 0.81819006,0.81819006 0 0 0 -0.8299,-0.74553 z m 4.9388,10e-6 a 0.81819006,0.81819006 0 0 0 -0.8305,0.74515 0.81819006,0.81819006 0 0 0 0.7425,0.88759 0.81819006,0.81819006 0 0 0 0.8877,-0.74143 0.81819006,0.81819006 0 0 0 -0.7416,-0.88846 0.81819006,0.81819006 0 0 0 -0.058,-0.003 z m 4.8796,-10e-6 a 0.81819006,0.81819006 0 0 0 -0.058,0.003 0.81819006,0.81819006 0 0 0 -0.7421,0.88833 0.81819006,0.81819006 0 0 0 0.8884,0.7414 0.81819006,0.81819006 0 0 0 0.7414,-0.88774 0.81819006,0.81819006 0 0 0 -0.8299,-0.74547 z m 4.9389,4e-5 a 0.81819006,0.81819006 0 0 0 -0.8305,0.74506 0.81819006,0.81819006 0 0 0 0.7423,0.88759 0.81819006,0.81819006 0 0 0 0.8878,-0.74142 0.81819006,0.81819006 0 0 0 -0.7427,-0.88792 0.81819006,0.81819006 0 0 0 -0.058,-0.003 z m 4.8795,-3e-5 a 0.81819006,0.81819006 0 0 0 -0.059,0.003 0.81819006,0.81819006 0 0 0 -0.7414,0.88842 0.81819006,0.81819006 0 0 0 0.8881,0.7411 0.81819006,0.81819006 0 0 0 0.7419,-0.88784 0.81819006,0.81819006 0 0 0 -0.8299,-0.74547 z m 4.9381,0 a 0.81819006,0.81819006 0 0 0 -0.8297,0.74515 0.81819006,0.81819006 0 0 0 0.7412,0.88814 0.81819006,0.81819006 0 0 0 0.8883,-0.74143 0.81819006,0.81819006 0 0 0 -0.7417,-0.88868 0.81819006,0.81819006 0 0 0 -0.059,-0.003 z m 4.8802,3e-5 a 0.81819006,0.81819006 0 0 0 -0.059,0.003 0.81819006,0.81819006 0 0 0 -0.742,0.88833 0.81819006,0.81819006 0 0 0 0.8883,0.7414 0.81819006,0.81819006 0 0 0 0.7416,-0.88775 0.81819006,0.81819006 0 0 0 -0.8297,-0.74517 z m 4.9389,-4e-5 a 0.81819006,0.81819006 0 0 0 -0.8303,0.74515 0.81819006,0.81819006 0 0 0 0.7422,0.88752 0.81819006,0.81819006 0 0 0 0.8877,-0.74143 0.81819006,0.81819006 0 0 0 -0.7417,-0.88868 0.81819006,0.81819006 0 0 0 -0.058,-0.003 z m 4.8795,7e-5 a 0.81819006,0.81819006 0 0 0 -0.058,0.003 0.81819006,0.81819006 0 0 0 -0.7421,0.88842 0.81819006,0.81819006 0 0 0 0.8881,0.7411 0.81819006,0.81819006 0 0 0 0.7422,-0.88775 0.81819006,0.81819006 0 0 0 -0.8309,-0.74468 z m 4.9381,0 a 0.81819006,0.81819006 0 0 0 -0.8296,0.74515 0.81819006,0.81819006 0 0 0 0.741,0.88807 0.81819006,0.81819006 0 0 0 0.8884,-0.74136 0.81819006,0.81819006 0 0 0 -0.7416,-0.88868 0.81819006,0.81819006 0 0 0 -0.059,-0.003 z m 4.8803,-6e-5 a 0.81819006,0.81819006 0 0 0 -0.058,0.003 0.81819006,0.81819006 0 0 0 -0.7419,0.88842 0.81819006,0.81819006 0 0 0 0.8884,0.74138 0.81819006,0.81819006 0 0 0 0.7421,-0.88774 0.81819006,0.81819006 0 0 0 -0.8309,-0.74469 z m 4.9381,-10e-6 a 0.81819006,0.81819006 0 0 0 -0.8302,0.74515 0.81819006,0.81819006 0 0 0 0.7422,0.88752 0.81819006,0.81819006 0 0 0 0.8877,-0.74143 0.81819006,0.81819006 0 0 0 -0.7414,-0.88838 0.81819006,0.81819006 0 0 0 -0.058,-0.003 z m 4.8795,7e-5 a 0.81819006,0.81819006 0 0 0 -0.058,0.003 0.81819006,0.81819006 0 0 0 -0.7421,0.88842 0.81819006,0.81819006 0 0 0 0.8881,0.7411 0.81819006,0.81819006 0 0 0 0.7422,-0.88775 0.81819006,0.81819006 0 0 0 -0.8309,-0.74468 z m 4.9397,-3e-5 a 0.81819006,0.81819006 0 0 0 -0.8305,0.74508 0.81819006,0.81819006 0 0 0 0.7412,0.88812 0.81819006,0.81819006 0 0 0 0.8883,-0.74142 0.81819006,0.81819006 0 0 0 -0.7426,-0.88791 0.81819006,0.81819006 0 0 0 -0.058,-0.003 z m 4.8788,3e-5 a 0.81819006,0.81819006 0 0 0 -0.059,0.003 0.81819006,0.81819006 0 0 0 -0.7414,0.88842 0.81819006,0.81819006 0 0 0 0.888,0.7411 0.81819006,0.81819006 0 0 0 0.7419,-0.88775 0.81819006,0.81819006 0 0 0 -0.8298,-0.74546 z m 4.9389,-5e-5 a 0.81819006,0.81819006 0 0 0 -0.8306,0.74516 0.81819006,0.81819006 0 0 0 0.7425,0.88757 0.81819006,0.81819006 0 0 0 0.8877,-0.74142 0.81819006,0.81819006 0 0 0 -0.7414,-0.8884 0.81819006,0.81819006 0 0 0 -0.058,-0.003 z m 4.8796,-1e-5 a 0.81819006,0.81819006 0 0 0 -0.058,0.003 0.81819006,0.81819006 0 0 0 -0.7419,0.88833 0.81819006,0.81819006 0 0 0 0.8885,0.74139 0.81819006,0.81819006 0 0 0 0.7414,-0.88774 0.81819006,0.81819006 0 0 0 -0.8299,-0.74547 z m 4.9388,3e-5 a 0.81819006,0.81819006 0 0 0 -0.8304,0.74508 0.81819006,0.81819006 0 0 0 0.7422,0.88757 0.81819006,0.81819006 0 0 0 0.8877,-0.74142 0.81819006,0.81819006 0 0 0 -0.7416,-0.88869 0.81819006,0.81819006 0 0 0 -0.058,-0.003 z m -93.3037,4.90918 a 0.81819006,0.81819006 0 0 0 -0.058,0.003 0.81819006,0.81819006 0 0 0 -0.7422,0.88834 0.81819006,0.81819006 0 0 0 0.888,0.7411 0.81819006,0.81819006 0 0 0 0.7422,-0.88775 0.81819006,0.81819006 0 0 0 -0.8308,-0.74468 z m 4.9388,-4e-5 a 0.81819006,0.81819006 0 0 0 -0.8302,0.74514 0.81819006,0.81819006 0 0 0 0.7421,0.88754 0.81819006,0.81819006 0 0 0 0.8878,-0.74144 0.81819006,0.81819006 0 0 0 -0.7418,-0.88866 0.81819006,0.81819006 0 0 0 -0.058,-0.003 z m 4.8803,0 a 0.81819006,0.81819006 0 0 0 -0.059,0.003 0.81819006,0.81819006 0 0 0 -0.7421,0.88843 0.81819006,0.81819006 0 0 0 0.8885,0.74145 0.81819006,0.81819006 0 0 0 0.7414,-0.88775 0.81819006,0.81819006 0 0 0 -0.8296,-0.74516 z m 4.9381,0 a 0.81819006,0.81819006 0 0 0 -0.8297,0.74514 0.81819006,0.81819006 0 0 0 0.7412,0.88814 0.81819006,0.81819006 0 0 0 0.8882,-0.74143 0.81819006,0.81819006 0 0 0 -0.7416,-0.88873 0.81819006,0.81819006 0 0 0 -0.058,-0.003 z m 4.8795,6e-5 a 0.81819006,0.81819006 0 0 0 -0.058,0.003 0.81819006,0.81819006 0 0 0 -0.742,0.88833 0.81819006,0.81819006 0 0 0 0.8879,0.74111 0.81819006,0.81819006 0 0 0 0.7421,-0.88776 0.81819006,0.81819006 0 0 0 -0.8299,-0.74547 z m 4.939,-4e-5 a 0.81819006,0.81819006 0 0 0 -0.8306,0.74514 0.81819006,0.81819006 0 0 0 0.7422,0.88759 0.81819006,0.81819006 0 0 0 0.8878,-0.74144 0.81819006,0.81819006 0 0 0 -0.7413,-0.88836 0.81819006,0.81819006 0 0 0 -0.058,-0.003 z m 4.8795,-2e-5 a 0.81819006,0.81819006 0 0 0 -0.059,0.003 0.81819006,0.81819006 0 0 0 -0.7413,0.88834 0.81819006,0.81819006 0 0 0 0.8881,0.74109 0.81819006,0.81819006 0 0 0 0.7418,-0.88774 0.81819006,0.81819006 0 0 0 -0.8299,-0.74547 z m 4.9381,0 a 0.81819006,0.81819006 0 0 0 -0.8297,0.74514 0.81819006,0.81819006 0 0 0 0.7412,0.88814 0.81819006,0.81819006 0 0 0 0.8883,-0.74145 0.81819006,0.81819006 0 0 0 -0.7417,-0.88867 0.81819006,0.81819006 0 0 0 -0.059,-0.003 z m 4.8802,2e-5 a 0.81819006,0.81819006 0 0 0 -0.058,0.003 0.81819006,0.81819006 0 0 0 -0.7421,0.88835 0.81819006,0.81819006 0 0 0 0.8884,0.74138 0.81819006,0.81819006 0 0 0 0.7415,-0.88774 0.81819006,0.81819006 0 0 0 -0.8301,-0.74547 z m 4.9389,-4e-5 a 0.81819006,0.81819006 0 0 0 -0.8303,0.74516 0.81819006,0.81819006 0 0 0 0.7422,0.88753 0.81819006,0.81819006 0 0 0 0.8877,-0.74144 0.81819006,0.81819006 0 0 0 -0.7414,-0.88838 0.81819006,0.81819006 0 0 0 -0.059,-0.003 z m 4.8795,6e-5 a 0.81819006,0.81819006 0 0 0 -0.059,0.003 0.81819006,0.81819006 0 0 0 -0.7414,0.88842 0.81819006,0.81819006 0 0 0 0.8881,0.74109 0.81819006,0.81819006 0 0 0 0.742,-0.88774 0.81819006,0.81819006 0 0 0 -0.8299,-0.74553 z m 4.9388,-3e-5 a 0.81819006,0.81819006 0 0 0 -0.8303,0.74515 0.81819006,0.81819006 0 0 0 0.741,0.88806 0.81819006,0.81819006 0 0 0 0.8884,-0.74134 0.81819006,0.81819006 0 0 0 -0.7416,-0.88866 0.81819006,0.81819006 0 0 0 -0.058,-0.003 z m 4.8796,-3e-5 a 0.81819006,0.81819006 0 0 0 -0.058,0.003 0.81819006,0.81819006 0 0 0 -0.7419,0.88842 0.81819006,0.81819006 0 0 0 0.8884,0.7414 0.81819006,0.81819006 0 0 0 0.7414,-0.88774 0.81819006,0.81819006 0 0 0 -0.8297,-0.74524 z m 4.9381,0 a 0.81819006,0.81819006 0 0 0 -0.8302,0.74516 0.81819006,0.81819006 0 0 0 0.7422,0.88752 0.81819006,0.81819006 0 0 0 0.8877,-0.74144 0.81819006,0.81819006 0 0 0 -0.7414,-0.88837 0.81819006,0.81819006 0 0 0 -0.058,-0.003 z m 4.8795,6e-5 a 0.81819006,0.81819006 0 0 0 -0.058,0.003 0.81819006,0.81819006 0 0 0 -0.7415,0.88835 0.81819006,0.81819006 0 0 0 0.8882,0.74109 0.81819006,0.81819006 0 0 0 0.742,-0.88775 0.81819006,0.81819006 0 0 0 -0.8309,-0.74468 z m 4.939,-6e-5 a 0.81819006,0.81819006 0 0 0 -0.8305,0.74516 0.81819006,0.81819006 0 0 0 0.7424,0.88758 0.81819006,0.81819006 0 0 0 0.8877,-0.74143 0.81819006,0.81819006 0 0 0 -0.7417,-0.88874 0.81819006,0.81819006 0 0 0 -0.058,-0.003 z m 4.8801,3e-5 a 0.81819006,0.81819006 0 0 0 -0.059,0.003 0.81819006,0.81819006 0 0 0 -0.7419,0.88833 0.81819006,0.81819006 0 0 0 0.8882,0.7414 0.81819006,0.81819006 0 0 0 0.7415,-0.88774 0.81819006,0.81819006 0 0 0 -0.8295,-0.74518 z m 4.9383,0 a 0.81819006,0.81819006 0 0 0 -0.8298,0.74515 0.81819006,0.81819006 0 0 0 0.7411,0.88812 0.81819006,0.81819006 0 0 0 0.8885,-0.74143 0.81819006,0.81819006 0 0 0 -0.7417,-0.88867 0.81819006,0.81819006 0 0 0 -0.059,-0.003 z m 4.8796,-3e-5 a 0.81819006,0.81819006 0 0 0 -0.058,0.003 0.81819006,0.81819006 0 0 0 -0.742,0.88834 0.81819006,0.81819006 0 0 0 0.888,0.74111 0.81819006,0.81819006 0 0 0 0.742,-0.88774 0.81819006,0.81819006 0 0 0 -0.8298,-0.74549 z m 4.9388,6e-5 a 0.81819006,0.81819006 0 0 0 -0.8304,0.74505 0.81819006,0.81819006 0 0 0 0.7422,0.88759 0.81819006,0.81819006 0 0 0 0.8877,-0.74144 0.81819006,0.81819006 0 0 0 -0.7414,-0.88837 0.81819006,0.81819006 0 0 0 -0.059,-0.003 z m -93.3032,4.90923 a 0.81819006,0.81819006 0 0 0 -0.058,0.003 0.81819006,0.81819006 0 0 0 -0.7414,0.88783 0.81819006,0.81819006 0 0 0 0.8874,0.74226 0.81819006,0.81819006 0 0 0 0.7423,-0.88783 0.81819006,0.81819006 0 0 0 -0.83,-0.74554 z m 4.9381,-10e-6 a 0.81819006,0.81819006 0 0 0 -0.83,0.74506 0.81819006,0.81819006 0 0 0 0.7421,0.88753 0.81819006,0.81819006 0 0 0 0.8878,-0.74143 0.81819006,0.81819006 0 0 0 -0.7414,-0.88838 0.81819006,0.81819006 0 0 0 -0.059,-0.003 z m 4.8804,0 a 0.81819006,0.81819006 0 0 0 -0.059,0.003 0.81819006,0.81819006 0 0 0 -0.742,0.88842 0.81819006,0.81819006 0 0 0 0.8884,0.74145 0.81819006,0.81819006 0 0 0 0.7414,-0.88775 0.81819006,0.81819006 0 0 0 -0.8297,-0.74517 z m 4.9389,-4e-5 a 0.81819006,0.81819006 0 0 0 -0.8306,0.74515 0.81819006,0.81819006 0 0 0 0.742,0.88728 0.81819006,0.81819006 0 0 0 0.8884,-0.74134 0.81819006,0.81819006 0 0 0 -0.7418,-0.88875 0.81819006,0.81819006 0 0 0 -0.058,-0.003 z m 4.8789,3e-5 a 0.81819006,0.81819006 0 0 0 -0.059,0.003 0.81819006,0.81819006 0 0 0 -0.7413,0.88834 0.81819006,0.81819006 0 0 0 0.888,0.7411 0.81819006,0.81819006 0 0 0 0.7419,-0.88774 0.81819006,0.81819006 0 0 0 -0.8299,-0.74546 z m 4.9389,-5e-5 a 0.81819006,0.81819006 0 0 0 -0.8306,0.74515 0.81819006,0.81819006 0 0 0 0.7424,0.88759 0.81819006,0.81819006 0 0 0 0.8878,-0.74143 0.81819006,0.81819006 0 0 0 -0.7415,-0.8884 0.81819006,0.81819006 0 0 0 -0.058,-0.003 z m 4.8794,7e-5 a 0.81819006,0.81819006 0 0 0 -0.059,0.003 0.81819006,0.81819006 0 0 0 -0.7421,0.88783 0.81819006,0.81819006 0 0 0 0.8888,0.74171 0.81819006,0.81819006 0 0 0 0.7414,-0.88774 0.81819006,0.81819006 0 0 0 -0.8297,-0.74518 z m 4.9389,-4e-5 a 0.81819006,0.81819006 0 0 0 -0.8305,0.74514 0.81819006,0.81819006 0 0 0 0.7424,0.8876 0.81819006,0.81819006 0 0 0 0.8877,-0.74144 0.81819006,0.81819006 0 0 0 -0.7418,-0.88868 0.81819006,0.81819006 0 0 0 -0.058,-0.003 z m 4.8795,-3e-5 a 0.81819006,0.81819006 0 0 0 -0.058,0.003 0.81819006,0.81819006 0 0 0 -0.742,0.88842 0.81819006,0.81819006 0 0 0 0.8881,0.74111 0.81819006,0.81819006 0 0 0 0.7419,-0.88775 0.81819006,0.81819006 0 0 0 -0.8299,-0.74546 z m 4.9383,0 a 0.81819006,0.81819006 0 0 0 -0.8297,0.74523 0.81819006,0.81819006 0 0 0 0.741,0.88808 0.81819006,0.81819006 0 0 0 0.8885,-0.74144 0.81819006,0.81819006 0 0 0 -0.7417,-0.88867 0.81819006,0.81819006 0 0 0 -0.059,-0.003 z m 4.8801,3e-5 a 0.81819006,0.81819006 0 0 0 -0.059,0.003 0.81819006,0.81819006 0 0 0 -0.7414,0.88775 0.81819006,0.81819006 0 0 0 0.8875,0.74226 0.81819006,0.81819006 0 0 0 0.742,-0.88775 0.81819006,0.81819006 0 0 0 -0.8298,-0.74553 z m 4.9387,4e-5 a 0.81819006,0.81819006 0 0 0 -0.8302,0.74506 0.81819006,0.81819006 0 0 0 0.7423,0.88752 0.81819006,0.81819006 0 0 0 0.8878,-0.74142 0.81819006,0.81819006 0 0 0 -0.7419,-0.88869 0.81819006,0.81819006 0 0 0 -0.058,-0.003 z m 4.8791,-6e-5 a 0.81819006,0.81819006 0 0 0 -0.058,0.003 0.81819006,0.81819006 0 0 0 -0.742,0.88843 0.81819006,0.81819006 0 0 0 0.8884,0.74138 0.81819006,0.81819006 0 0 0 0.7414,-0.88772 0.81819006,0.81819006 0 0 0 -0.83,-0.74553 z m 4.9387,5e-5 a 0.81819006,0.81819006 0 0 0 -0.8297,0.74515 0.81819006,0.81819006 0 0 0 0.7412,0.88806 0.81819006,0.81819006 0 0 0 0.8884,-0.74143 0.81819006,0.81819006 0 0 0 -0.7418,-0.88875 0.81819006,0.81819006 0 0 0 -0.059,-0.003 z m 4.8803,0 a 0.81819006,0.81819006 0 0 0 -0.058,0.003 0.81819006,0.81819006 0 0 0 -0.7414,0.88842 0.81819006,0.81819006 0 0 0 0.8881,0.7411 0.81819006,0.81819006 0 0 0 0.7419,-0.88773 0.81819006,0.81819006 0 0 0 -0.83,-0.74546 z m 4.9381,-1e-5 a 0.81819006,0.81819006 0 0 0 -0.8302,0.74506 0.81819006,0.81819006 0 0 0 0.7422,0.88759 0.81819006,0.81819006 0 0 0 0.8877,-0.74145 0.81819006,0.81819006 0 0 0 -0.7415,-0.88843 0.81819006,0.81819006 0 0 0 -0.058,-0.003 z m 4.8802,-5e-5 a 0.81819006,0.81819006 0 0 0 -0.059,0.003 0.81819006,0.81819006 0 0 0 -0.7421,0.88782 0.81819006,0.81819006 0 0 0 0.8887,0.74172 0.81819006,0.81819006 0 0 0 0.7415,-0.88775 0.81819006,0.81819006 0 0 0 -0.8297,-0.74517 z m 4.9382,7e-5 a 0.81819006,0.81819006 0 0 0 -0.8305,0.74506 0.81819006,0.81819006 0 0 0 0.7412,0.88813 0.81819006,0.81819006 0 0 0 0.8885,-0.74211 0.81819006,0.81819006 0 0 0 -0.7424,-0.88759 0.81819006,0.81819006 0 0 0 -0.058,-0.003 z m 4.8795,-10e-6 a 0.81819006,0.81819006 0 0 0 -0.059,0.003 0.81819006,0.81819006 0 0 0 -0.7414,0.88842 0.81819006,0.81819006 0 0 0 0.8882,0.7411 0.81819006,0.81819006 0 0 0 0.7417,-0.88774 0.81819006,0.81819006 0 0 0 -0.8298,-0.74546 z m 4.939,-5e-5 a 0.81819006,0.81819006 0 0 0 -0.8305,0.74515 0.81819006,0.81819006 0 0 0 0.7423,0.88758 0.81819006,0.81819006 0 0 0 0.8877,-0.74143 0.81819006,0.81819006 0 0 0 -0.7414,-0.88839 0.81819006,0.81819006 0 0 0 -0.059,-0.003 z m -93.3032,4.90921 a 0.81819006,0.81819006 0 0 0 -0.058,0.003 0.81819006,0.81819006 0 0 0 -0.742,0.88774 0.81819006,0.81819006 0 0 0 0.8886,0.74169 0.81819006,0.81819006 0 0 0 0.7414,-0.88774 0.81819006,0.81819006 0 0 0 -0.8296,-0.74522 z m 4.9381,0 a 0.81819006,0.81819006 0 0 0 -0.8302,0.74515 0.81819006,0.81819006 0 0 0 0.7422,0.88753 0.81819006,0.81819006 0 0 0 0.8878,-0.74202 0.81819006,0.81819006 0 0 0 -0.7412,-0.88807 0.81819006,0.81819006 0 0 0 -0.059,-0.003 z m 4.8798,-10e-6 a 0.81819006,0.81819006 0 0 0 -0.058,0.003 0.81819006,0.81819006 0 0 0 -0.7422,0.88774 0.81819006,0.81819006 0 0 0 0.8876,0.74225 0.81819006,0.81819006 0 0 0 0.7421,-0.88775 0.81819006,0.81819006 0 0 0 -0.8308,-0.74468 z m 4.9387,10e-6 a 0.81819006,0.81819006 0 0 0 -0.8303,0.74508 0.81819006,0.81819006 0 0 0 0.7424,0.88757 0.81819006,0.81819006 0 0 0 0.8875,-0.74202 0.81819006,0.81819006 0 0 0 -0.7422,-0.88758 0.81819006,0.81819006 0 0 0 -0.058,-0.003 z m 4.8797,-10e-6 a 0.81819006,0.81819006 0 0 0 -0.059,0.003 0.81819006,0.81819006 0 0 0 -0.7413,0.88832 0.81819006,0.81819006 0 0 0 0.888,0.7411 0.81819006,0.81819006 0 0 0 0.7419,-0.88774 0.81819006,0.81819006 0 0 0 -0.8299,-0.74548 z m 4.9389,-5e-5 a 0.81819006,0.81819006 0 0 0 -0.8298,0.74516 0.81819006,0.81819006 0 0 0 0.7411,0.88812 0.81819006,0.81819006 0 0 0 0.8883,-0.74202 0.81819006,0.81819006 0 0 0 -0.7422,-0.88752 0.81819006,0.81819006 0 0 0 -0.058,-0.003 z m 4.8794,6e-5 a 0.81819006,0.81819006 0 0 0 -0.058,0.003 0.81819006,0.81819006 0 0 0 -0.742,0.88782 0.81819006,0.81819006 0 0 0 0.8887,0.74171 0.81819006,0.81819006 0 0 0 0.7414,-0.88775 0.81819006,0.81819006 0 0 0 -0.8299,-0.74547 z m 4.9389,-3e-5 a 0.81819006,0.81819006 0 0 0 -0.8305,0.74514 0.81819006,0.81819006 0 0 0 0.7424,0.88759 0.81819006,0.81819006 0 0 0 0.8877,-0.74211 0.81819006,0.81819006 0 0 0 -0.7412,-0.88807 0.81819006,0.81819006 0 0 0 -0.059,-0.003 z m 4.8795,-3e-5 a 0.81819006,0.81819006 0 0 0 -0.059,0.003 0.81819006,0.81819006 0 0 0 -0.7415,0.88774 0.81819006,0.81819006 0 0 0 0.8877,0.74225 0.81819006,0.81819006 0 0 0 0.742,-0.88781 0.81819006,0.81819006 0 0 0 -0.83,-0.74549 z m 4.9383,0 a 0.81819006,0.81819006 0 0 0 -0.8297,0.74524 0.81819006,0.81819006 0 0 0 0.741,0.88807 0.81819006,0.81819006 0 0 0 0.8884,-0.74203 0.81819006,0.81819006 0 0 0 -0.7423,-0.88753 0.81819006,0.81819006 0 0 0 -0.059,-0.003 z m 4.8801,3e-5 a 0.81819006,0.81819006 0 0 0 -0.059,0.003 0.81819006,0.81819006 0 0 0 -0.742,0.88835 0.81819006,0.81819006 0 0 0 0.8883,0.7414 0.81819006,0.81819006 0 0 0 0.7415,-0.88776 0.81819006,0.81819006 0 0 0 -0.8296,-0.74522 z m 4.9382,0 a 0.81819006,0.81819006 0 0 0 -0.8303,0.74516 0.81819006,0.81819006 0 0 0 0.7422,0.88752 0.81819006,0.81819006 0 0 0 0.8878,-0.74212 0.81819006,0.81819006 0 0 0 -0.7412,-0.88805 0.81819006,0.81819006 0 0 0 -0.059,-0.003 z m 4.8796,-3e-5 a 0.81819006,0.81819006 0 0 0 -0.058,0.003 0.81819006,0.81819006 0 0 0 -0.742,0.88774 0.81819006,0.81819006 0 0 0 0.8875,0.74224 0.81819006,0.81819006 0 0 0 0.7422,-0.88774 0.81819006,0.81819006 0 0 0 -0.8301,-0.74553 z m 4.9393,8e-5 a 0.81819006,0.81819006 0 0 0 -0.8303,0.74506 0.81819006,0.81819006 0 0 0 0.7412,0.88807 0.81819006,0.81819006 0 0 0 0.8884,-0.74194 0.81819006,0.81819006 0 0 0 -0.7423,-0.88758 0.81819006,0.81819006 0 0 0 -0.058,-0.003 z m 4.8797,-3e-5 a 0.81819006,0.81819006 0 0 0 -0.058,0.003 0.81819006,0.81819006 0 0 0 -0.7422,0.88772 0.81819006,0.81819006 0 0 0 0.8889,0.74177 0.81819006,0.81819006 0 0 0 0.7414,-0.88774 0.81819006,0.81819006 0 0 0 -0.8297,-0.74516 z m 4.9382,0 a 0.81819006,0.81819006 0 0 0 -0.8303,0.74507 0.81819006,0.81819006 0 0 0 0.7422,0.88757 0.81819006,0.81819006 0 0 0 0.8876,-0.74202 0.81819006,0.81819006 0 0 0 -0.7411,-0.88813 0.81819006,0.81819006 0 0 0 -0.058,-0.003 z m 4.8796,-2e-5 a 0.81819006,0.81819006 0 0 0 -0.058,0.003 0.81819006,0.81819006 0 0 0 -0.7419,0.88774 0.81819006,0.81819006 0 0 0 0.8876,0.74225 0.81819006,0.81819006 0 0 0 0.742,-0.88783 0.81819006,0.81819006 0 0 0 -0.8299,-0.74549 z m 4.9387,5e-5 a 0.81819006,0.81819006 0 0 0 -0.8303,0.74506 0.81819006,0.81819006 0 0 0 0.7423,0.88759 0.81819006,0.81819006 0 0 0 0.8876,-0.74201 0.81819006,0.81819006 0 0 0 -0.7423,-0.88759 0.81819006,0.81819006 0 0 0 -0.058,-0.003 z m 4.8797,-3e-5 a 0.81819006,0.81819006 0 0 0 -0.059,0.003 0.81819006,0.81819006 0 0 0 -0.7412,0.88765 0.81819006,0.81819006 0 0 0 0.8875,0.74224 0.81819006,0.81819006 0 0 0 0.7419,-0.88775 0.81819006,0.81819006 0 0 0 -0.83,-0.74547 z m 4.9388,-4e-5 a 0.81819006,0.81819006 0 0 0 -0.8298,0.74524 0.81819006,0.81819006 0 0 0 0.7411,0.88807 0.81819006,0.81819006 0 0 0 0.8883,-0.74204 0.81819006,0.81819006 0 0 0 -0.7422,-0.88751 0.81819006,0.81819006 0 0 0 -0.059,-0.003 z m -93.3031,4.90924 a 0.81819006,0.81819006 0 0 0 -0.058,0.003 0.81819006,0.81819006 0 0 0 -0.7421,0.88775 0.81819006,0.81819006 0 0 0 0.8887,0.74171 0.81819006,0.81819006 0 0 0 0.7416,-0.88833 0.81819006,0.81819006 0 0 0 -0.8302,-0.74409 z m 4.9382,-1e-5 a 0.81819006,0.81819006 0 0 0 -0.8297,0.74515 0.81819006,0.81819006 0 0 0 0.7411,0.88807 0.81819006,0.81819006 0 0 0 0.8884,-0.74211 0.81819006,0.81819006 0 0 0 -0.7422,-0.88759 0.81819006,0.81819006 0 0 0 -0.059,-0.003 z m 4.8796,-10e-6 a 0.81819006,0.81819006 0 0 0 -0.058,0.003 0.81819006,0.81819006 0 0 0 -0.7414,0.88774 0.81819006,0.81819006 0 0 0 0.8875,0.74226 0.81819006,0.81819006 0 0 0 0.7421,-0.88774 0.81819006,0.81819006 0 0 0 -0.83,-0.74552 z m 4.9388,10e-6 a 0.81819006,0.81819006 0 0 0 -0.8305,0.74515 0.81819006,0.81819006 0 0 0 0.7425,0.88759 0.81819006,0.81819006 0 0 0 0.8877,-0.74212 0.81819006,0.81819006 0 0 0 -0.7412,-0.88812 0.81819006,0.81819006 0 0 0 -0.058,-0.003 z m 4.88,2e-5 a 0.81819006,0.81819006 0 0 0 -0.059,0.003 0.81819006,0.81819006 0 0 0 -0.742,0.88784 0.81819006,0.81819006 0 0 0 0.8887,0.7417 0.81819006,0.81819006 0 0 0 0.7414,-0.88774 0.81819006,0.81819006 0 0 0 -0.8296,-0.74517 z m 4.9384,0 a 0.81819006,0.81819006 0 0 0 -0.8304,0.74507 0.81819006,0.81819006 0 0 0 0.7412,0.88814 0.81819006,0.81819006 0 0 0 0.8882,-0.74203 0.81819006,0.81819006 0 0 0 -0.7422,-0.88758 0.81819006,0.81819006 0 0 0 -0.058,-0.003 z m 4.8796,-10e-6 a 0.81819006,0.81819006 0 0 0 -0.058,0.003 0.81819006,0.81819006 0 0 0 -0.7418,0.88775 0.81819006,0.81819006 0 0 0 0.8875,0.74226 0.81819006,0.81819006 0 0 0 0.742,-0.88784 0.81819006,0.81819006 0 0 0 -0.8299,-0.74547 z m 4.9386,5e-5 a 0.81819006,0.81819006 0 0 0 -0.8303,0.74506 0.81819006,0.81819006 0 0 0 0.7424,0.88759 0.81819006,0.81819006 0 0 0 0.8877,-0.74212 0.81819006,0.81819006 0 0 0 -0.7412,-0.88807 0.81819006,0.81819006 0 0 0 -0.059,-0.003 z m 4.8796,-3e-5 a 0.81819006,0.81819006 0 0 0 -0.059,0.003 0.81819006,0.81819006 0 0 0 -0.7414,0.88774 0.81819006,0.81819006 0 0 0 0.8875,0.74227 0.81819006,0.81819006 0 0 0 0.742,-0.88775 0.81819006,0.81819006 0 0 0 -0.8299,-0.74547 z m 4.939,-3e-5 a 0.81819006,0.81819006 0 0 0 -0.8303,0.74514 0.81819006,0.81819006 0 0 0 0.7422,0.88754 0.81819006,0.81819006 0 0 0 0.8877,-0.74212 0.81819006,0.81819006 0 0 0 -0.7421,-0.88751 0.81819006,0.81819006 0 0 0 -0.058,-0.003 z m 4.8789,1e-5 a 0.81819006,0.81819006 0 0 0 -0.058,0.003 0.81819006,0.81819006 0 0 0 -0.7418,0.88775 0.81819006,0.81819006 0 0 0 0.8887,0.74172 0.81819006,0.81819006 0 0 0 0.7414,-0.88774 0.81819006,0.81819006 0 0 0 -0.83,-0.74554 z m 4.9388,-4e-5 a 0.81819006,0.81819006 0 0 0 -0.8303,0.74515 0.81819006,0.81819006 0 0 0 0.7422,0.88752 0.81819006,0.81819006 0 0 0 0.8885,-0.74202 0.81819006,0.81819006 0 0 0 -0.7423,-0.88752 0.81819006,0.81819006 0 0 0 -0.059,-0.003 z m 4.8802,3e-5 a 0.81819006,0.81819006 0 0 0 -0.058,0.003 0.81819006,0.81819006 0 0 0 -0.7413,0.88772 0.81819006,0.81819006 0 0 0 0.8875,0.74227 0.81819006,0.81819006 0 0 0 0.7422,-0.88774 0.81819006,0.81819006 0 0 0 -0.8309,-0.74468 z m 4.9389,1e-5 a 0.81819006,0.81819006 0 0 0 -0.8305,0.74507 0.81819006,0.81819006 0 0 0 0.7424,0.88758 0.81819006,0.81819006 0 0 0 0.8875,-0.74202 0.81819006,0.81819006 0 0 0 -0.7422,-0.88759 0.81819006,0.81819006 0 0 0 -0.058,-0.003 z m 4.8795,-1e-5 a 0.81819006,0.81819006 0 0 0 -0.058,0.003 0.81819006,0.81819006 0 0 0 -0.7422,0.88774 0.81819006,0.81819006 0 0 0 0.8889,0.74177 0.81819006,0.81819006 0 0 0 0.7414,-0.88775 0.81819006,0.81819006 0 0 0 -0.8296,-0.74516 z m 4.9382,0 a 0.81819006,0.81819006 0 0 0 -0.8298,0.74514 0.81819006,0.81819006 0 0 0 0.7412,0.88814 0.81819006,0.81819006 0 0 0 0.8883,-0.74211 0.81819006,0.81819006 0 0 0 -0.7422,-0.88758 0.81819006,0.81819006 0 0 0 -0.058,-0.003 z m 4.8796,-3e-5 a 0.81819006,0.81819006 0 0 0 -0.059,0.003 0.81819006,0.81819006 0 0 0 -0.7414,0.88774 0.81819006,0.81819006 0 0 0 0.8876,0.74226 0.81819006,0.81819006 0 0 0 0.742,-0.88783 0.81819006,0.81819006 0 0 0 -0.8299,-0.74548 z m 4.9388,4e-5 a 0.81819006,0.81819006 0 0 0 -0.8304,0.74507 0.81819006,0.81819006 0 0 0 0.7423,0.88758 0.81819006,0.81819006 0 0 0 0.8876,-0.74202 0.81819006,0.81819006 0 0 0 -0.7411,-0.88806 0.81819006,0.81819006 0 0 0 -0.059,-0.003 z m 4.8796,-1e-5 a 0.81819006,0.81819006 0 0 0 -0.059,0.003 0.81819006,0.81819006 0 0 0 -0.7418,0.88774 0.81819006,0.81819006 0 0 0 0.8878,0.74255 0.81819006,0.81819006 0 0 0 0.7414,-0.88774 0.81819006,0.81819006 0 0 0 -0.8297,-0.74518 z m 4.9387,3e-5 a 0.81819006,0.81819006 0 0 0 -0.8303,0.74507 0.81819006,0.81819006 0 0 0 0.741,0.88813 0.81819006,0.81819006 0 0 0 0.8884,-0.74211 0.81819006,0.81819006 0 0 0 -0.7421,-0.88752 0.81819006,0.81819006 0 0 0 -0.058,-0.003 z m -93.3037,4.90919 a 0.81819006,0.81819006 0 0 0 -0.058,0.003 0.81819006,0.81819006 0 0 0 -0.7421,0.88773 0.81819006,0.81819006 0 0 0 0.8875,0.74226 0.81819006,0.81819006 0 0 0 0.7421,-0.88775 0.81819006,0.81819006 0 0 0 -0.8301,-0.74553 z m 4.9397,-3e-5 a 0.81819006,0.81819006 0 0 0 -0.8305,0.74506 0.81819006,0.81819006 0 0 0 0.7411,0.88808 0.81819006,0.81819006 0 0 0 0.8884,-0.74203 0.81819006,0.81819006 0 0 0 -0.7422,-0.88758 0.81819006,0.81819006 0 0 0 -0.058,-0.003 z m 4.8788,-3e-5 a 0.81819006,0.81819006 0 0 0 -0.058,0.003 0.81819006,0.81819006 0 0 0 -0.7416,0.88765 0.81819006,0.81819006 0 0 0 0.8876,0.74225 0.81819006,0.81819006 0 0 0 0.7422,-0.88832 0.81819006,0.81819006 0 0 0 -0.8305,-0.74441 z m 4.9388,0 a 0.81819006,0.81819006 0 0 0 -0.8305,0.74515 0.81819006,0.81819006 0 0 0 0.7425,0.88759 0.81819006,0.81819006 0 0 0 0.8877,-0.7421 0.81819006,0.81819006 0 0 0 -0.742,-0.88729 0.81819006,0.81819006 0 0 0 -0.058,-0.003 z m 4.8796,0 a 0.81819006,0.81819006 0 0 0 -0.058,0.003 0.81819006,0.81819006 0 0 0 -0.7419,0.88774 0.81819006,0.81819006 0 0 0 0.8886,0.74171 0.81819006,0.81819006 0 0 0 0.7413,-0.88767 0.81819006,0.81819006 0 0 0 -0.8299,-0.74546 z m 4.9389,3e-5 a 0.81819006,0.81819006 0 0 0 -0.8305,0.74457 0.81819006,0.81819006 0 0 0 0.7418,0.88871 0.81819006,0.81819006 0 0 0 0.8876,-0.74202 0.81819006,0.81819006 0 0 0 -0.7423,-0.88759 0.81819006,0.81819006 0 0 0 -0.058,-0.003 z m 4.8795,-1e-5 a 0.81819006,0.81819006 0 0 0 -0.059,0.003 0.81819006,0.81819006 0 0 0 -0.7414,0.88775 0.81819006,0.81819006 0 0 0 0.8874,0.74224 0.81819006,0.81819006 0 0 0 0.7422,-0.88834 0.81819006,0.81819006 0 0 0 -0.8305,-0.74433 z m 4.9381,-2e-5 a 0.81819006,0.81819006 0 0 0 -0.8298,0.74456 0.81819006,0.81819006 0 0 0 0.7414,0.88844 0.81819006,0.81819006 0 0 0 0.8883,-0.74203 0.81819006,0.81819006 0 0 0 -0.7421,-0.88751 0.81819006,0.81819006 0 0 0 -0.059,-0.003 z m 4.8801,3e-5 a 0.81819006,0.81819006 0 0 0 -0.059,0.003 0.81819006,0.81819006 0 0 0 -0.7419,0.88783 0.81819006,0.81819006 0 0 0 0.8886,0.74171 0.81819006,0.81819006 0 0 0 0.7414,-0.88834 0.81819006,0.81819006 0 0 0 -0.8294,-0.74488 z m 4.939,-3e-5 a 0.81819006,0.81819006 0 0 0 -0.8303,0.74513 0.81819006,0.81819006 0 0 0 0.7422,0.88754 0.81819006,0.81819006 0 0 0 0.8877,-0.74211 0.81819006,0.81819006 0 0 0 -0.7411,-0.88807 0.81819006,0.81819006 0 0 0 -0.059,-0.003 z m 4.8795,6e-5 a 0.81819006,0.81819006 0 0 0 -0.058,0.003 0.81819006,0.81819006 0 0 0 -0.7421,0.88774 0.81819006,0.81819006 0 0 0 0.8875,0.74226 0.81819006,0.81819006 0 0 0 0.7421,-0.88775 0.81819006,0.81819006 0 0 0 -0.83,-0.74554 z m 4.9381,0 a 0.81819006,0.81819006 0 0 0 -0.8296,0.74515 0.81819006,0.81819006 0 0 0 0.741,0.88806 0.81819006,0.81819006 0 0 0 0.8884,-0.74202 0.81819006,0.81819006 0 0 0 -0.7423,-0.88753 0.81819006,0.81819006 0 0 0 -0.059,-0.003 z m 4.8803,-6e-5 a 0.81819006,0.81819006 0 0 0 -0.058,0.003 0.81819006,0.81819006 0 0 0 -0.742,0.88775 0.81819006,0.81819006 0 0 0 0.8887,0.7417 0.81819006,0.81819006 0 0 0 0.7423,-0.88835 0.81819006,0.81819006 0 0 0 -0.8306,-0.74437 z m 4.9381,0 a 0.81819006,0.81819006 0 0 0 -0.8302,0.74465 0.81819006,0.81819006 0 0 0 0.7417,0.88866 0.81819006,0.81819006 0 0 0 0.8877,-0.74212 0.81819006,0.81819006 0 0 0 -0.7411,-0.88805 0.81819006,0.81819006 0 0 0 -0.059,-0.003 z m 4.8795,6e-5 a 0.81819006,0.81819006 0 0 0 -0.058,0.003 0.81819006,0.81819006 0 0 0 -0.7421,0.88774 0.81819006,0.81819006 0 0 0 0.8875,0.74226 0.81819006,0.81819006 0 0 0 0.7422,-0.88775 0.81819006,0.81819006 0 0 0 -0.8301,-0.74553 z m 4.9397,-10e-6 a 0.81819006,0.81819006 0 0 0 -0.8305,0.74505 0.81819006,0.81819006 0 0 0 0.7412,0.88813 0.81819006,0.81819006 0 0 0 0.8882,-0.74201 0.81819006,0.81819006 0 0 0 -0.7422,-0.88758 0.81819006,0.81819006 0 0 0 -0.058,-0.003 z m 4.8788,10e-6 a 0.81819006,0.81819006 0 0 0 -0.059,0.003 0.81819006,0.81819006 0 0 0 -0.7414,0.88774 0.81819006,0.81819006 0 0 0 0.8875,0.74226 0.81819006,0.81819006 0 0 0 0.742,-0.88783 0.81819006,0.81819006 0 0 0 -0.8299,-0.74548 z m 4.9389,-4e-5 a 0.81819006,0.81819006 0 0 0 -0.8306,0.74515 0.81819006,0.81819006 0 0 0 0.7425,0.88757 0.81819006,0.81819006 0 0 0 0.8876,-0.7421 0.81819006,0.81819006 0 0 0 -0.7411,-0.88806 0.81819006,0.81819006 0 0 0 -0.059,-0.003 z m 4.8796,-2e-5 a 0.81819006,0.81819006 0 0 0 -0.058,0.003 0.81819006,0.81819006 0 0 0 -0.7418,0.88775 0.81819006,0.81819006 0 0 0 0.8887,0.7417 0.81819006,0.81819006 0 0 0 0.7413,-0.88835 0.81819006,0.81819006 0 0 0 -0.8304,-0.74432 z m 4.9387,5e-5 a 0.81819006,0.81819006 0 0 0 -0.8303,0.74455 0.81819006,0.81819006 0 0 0 0.7425,0.88788 0.81819006,0.81819006 0 0 0 0.8877,-0.74203 0.81819006,0.81819006 0 0 0 -0.7423,-0.88751 0.81819006,0.81819006 0 0 0 -0.058,-0.003 z m -93.3036,4.90918 a 0.81819006,0.81819006 0 0 0 -0.058,0.003 0.81819006,0.81819006 0 0 0 -0.7422,0.88774 0.81819006,0.81819006 0 0 0 0.8877,0.74227 0.81819006,0.81819006 0 0 0 0.7421,-0.88775 0.81819006,0.81819006 0 0 0 -0.8301,-0.74553 z m 4.9388,-4e-5 a 0.81819006,0.81819006 0 0 0 -0.8302,0.74448 0.81819006,0.81819006 0 0 0 0.7416,0.88869 0.81819006,0.81819006 0 0 0 0.8878,-0.74212 0.81819006,0.81819006 0 0 0 -0.7424,-0.88752 0.81819006,0.81819006 0 0 0 -0.058,-0.003 z m 4.8803,0 a 0.81819006,0.81819006 0 0 0 -0.059,0.003 0.81819006,0.81819006 0 0 0 -0.7421,0.88775 0.81819006,0.81819006 0 0 0 0.8887,0.74179 0.81819006,0.81819006 0 0 0 0.7414,-0.88844 0.81819006,0.81819006 0 0 0 -0.8294,-0.74484 z m 4.9381,-10e-6 a 0.81819006,0.81819006 0 0 0 -0.8299,0.74457 0.81819006,0.81819006 0 0 0 0.7416,0.88844 0.81819006,0.81819006 0 0 0 0.8883,-0.74202 0.81819006,0.81819006 0 0 0 -0.7423,-0.88759 0.81819006,0.81819006 0 0 0 -0.058,-0.003 z m 4.8795,8e-5 a 0.81819006,0.81819006 0 0 0 -0.058,0.003 0.81819006,0.81819006 0 0 0 -0.742,0.88782 0.81819006,0.81819006 0 0 0 0.8875,0.74225 0.81819006,0.81819006 0 0 0 0.7421,-0.88841 0.81819006,0.81819006 0 0 0 -0.8305,-0.74431 z m 4.939,-5e-5 a 0.81819006,0.81819006 0 0 0 -0.8306,0.74448 0.81819006,0.81819006 0 0 0 0.7417,0.88875 0.81819006,0.81819006 0 0 0 0.8878,-0.74212 0.81819006,0.81819006 0 0 0 -0.741,-0.88807 0.81819006,0.81819006 0 0 0 -0.058,-0.003 z m 4.8795,-2e-5 a 0.81819006,0.81819006 0 0 0 -0.059,0.003 0.81819006,0.81819006 0 0 0 -0.7415,0.88775 0.81819006,0.81819006 0 0 0 0.8875,0.74226 0.81819006,0.81819006 0 0 0 0.7421,-0.88783 0.81819006,0.81819006 0 0 0 -0.83,-0.74547 z m 4.9388,4e-5 a 0.81819006,0.81819006 0 0 0 -0.8304,0.74457 0.81819006,0.81819006 0 0 0 0.7414,0.88845 0.81819006,0.81819006 0 0 0 0.8883,-0.74203 0.81819006,0.81819006 0 0 0 -0.7422,-0.88752 0.81819006,0.81819006 0 0 0 -0.058,-0.003 z m 4.8795,-1e-5 a 0.81819006,0.81819006 0 0 0 -0.058,0.003 0.81819006,0.81819006 0 0 0 -0.742,0.88775 0.81819006,0.81819006 0 0 0 0.8887,0.74171 0.81819006,0.81819006 0 0 0 0.7413,-0.88834 0.81819006,0.81819006 0 0 0 -0.8304,-0.74431 z m 4.9387,5e-5 a 0.81819006,0.81819006 0 0 0 -0.8303,0.74447 0.81819006,0.81819006 0 0 0 0.7418,0.88869 0.81819006,0.81819006 0 0 0 0.8878,-0.74211 0.81819006,0.81819006 0 0 0 -0.7412,-0.88807 0.81819006,0.81819006 0 0 0 -0.059,-0.003 z m 4.8797,-3e-5 a 0.81819006,0.81819006 0 0 0 -0.059,0.003 0.81819006,0.81819006 0 0 0 -0.7413,0.88767 0.81819006,0.81819006 0 0 0 0.8875,0.74224 0.81819006,0.81819006 0 0 0 0.742,-0.88841 0.81819006,0.81819006 0 0 0 -0.8305,-0.74438 z m 4.9388,-3e-5 a 0.81819006,0.81819006 0 0 0 -0.8303,0.74446 0.81819006,0.81819006 0 0 0 0.7416,0.88869 0.81819006,0.81819006 0 0 0 0.8878,-0.7421 0.81819006,0.81819006 0 0 0 -0.7423,-0.88753 0.81819006,0.81819006 0 0 0 -0.058,-0.003 z m 4.8794,6e-5 a 0.81819006,0.81819006 0 0 0 -0.058,0.003 0.81819006,0.81819006 0 0 0 -0.7421,0.88775 0.81819006,0.81819006 0 0 0 0.8879,0.74255 0.81819006,0.81819006 0 0 0 0.7417,-0.88841 0.81819006,0.81819006 0 0 0 -0.8304,-0.74408 z m 4.9383,0 a 0.81819006,0.81819006 0 0 0 -0.8304,0.74447 0.81819006,0.81819006 0 0 0 0.7419,0.88869 0.81819006,0.81819006 0 0 0 0.8882,-0.74211 0.81819006,0.81819006 0 0 0 -0.7421,-0.88759 0.81819006,0.81819006 0 0 0 -0.059,-0.003 z m 4.8795,-3e-5 a 0.81819006,0.81819006 0 0 0 -0.058,0.003 0.81819006,0.81819006 0 0 0 -0.7415,0.88783 0.81819006,0.81819006 0 0 0 0.8876,0.74225 0.81819006,0.81819006 0 0 0 0.7421,-0.88841 0.81819006,0.81819006 0 0 0 -0.8306,-0.74436 z m 4.9389,3e-5 a 0.81819006,0.81819006 0 0 0 -0.8302,0.74447 0.81819006,0.81819006 0 0 0 0.7417,0.88874 0.81819006,0.81819006 0 0 0 0.8877,-0.7421 0.81819006,0.81819006 0 0 0 -0.7422,-0.88759 0.81819006,0.81819006 0 0 0 -0.058,-0.003 z m 4.8802,-6e-5 a 0.81819006,0.81819006 0 0 0 -0.059,0.003 0.81819006,0.81819006 0 0 0 -0.7418,0.88774 0.81819006,0.81819006 0 0 0 0.8878,0.74254 0.81819006,0.81819006 0 0 0 0.7414,-0.88841 0.81819006,0.81819006 0 0 0 -0.8293,-0.74486 z m 4.9383,0 a 0.81819006,0.81819006 0 0 0 -0.8299,0.74455 0.81819006,0.81819006 0 0 0 0.7415,0.88845 0.81819006,0.81819006 0 0 0 0.8883,-0.74201 0.81819006,0.81819006 0 0 0 -0.7422,-0.88754 0.81819006,0.81819006 0 0 0 -0.059,-0.003 z m 4.8794,6e-5 a 0.81819006,0.81819006 0 0 0 -0.058,0.003 0.81819006,0.81819006 0 0 0 -0.742,0.88782 0.81819006,0.81819006 0 0 0 0.8876,0.74227 0.81819006,0.81819006 0 0 0 0.742,-0.88841 0.81819006,0.81819006 0 0 0 -0.8306,-0.74431 z m 4.939,-5e-5 a 0.81819006,0.81819006 0 0 0 -0.8304,0.74456 0.81819006,0.81819006 0 0 0 0.7417,0.88874 0.81819006,0.81819006 0 0 0 0.8877,-0.74211 0.81819006,0.81819006 0 0 0 -0.7411,-0.88808 0.81819006,0.81819006 0 0 0 -0.058,-0.003 z m -93.3032,4.90922 a 0.81819006,0.81819006 0 0 0 -0.058,0.003 0.81819006,0.81819006 0 0 0 -0.7414,0.88782 0.81819006,0.81819006 0 0 0 0.8874,0.74226 0.81819006,0.81819006 0 0 0 0.7421,-0.88833 0.81819006,0.81819006 0 0 0 -0.8306,-0.7444 z m 4.9381,-10e-6 a 0.81819006,0.81819006 0 0 0 -0.83,0.74456 0.81819006,0.81819006 0 0 0 0.7416,0.88867 0.81819006,0.81819006 0 0 0 0.8878,-0.7421 0.81819006,0.81819006 0 0 0 -0.7412,-0.88808 0.81819006,0.81819006 0 0 0 -0.058,-0.003 z m 4.8797,-2e-5 a 0.81819006,0.81819006 0 0 0 -0.058,0.003 0.81819006,0.81819006 0 0 0 -0.7422,0.88781 0.81819006,0.81819006 0 0 0 0.8888,0.74177 0.81819006,0.81819006 0 0 0 0.7414,-0.88843 0.81819006,0.81819006 0 0 0 -0.8305,-0.74438 z m 4.9396,-10e-6 a 0.81819006,0.81819006 0 0 0 -0.8304,0.74456 0.81819006,0.81819006 0 0 0 0.7414,0.88842 0.81819006,0.81819006 0 0 0 0.8883,-0.74202 0.81819006,0.81819006 0 0 0 -0.7422,-0.88758 0.81819006,0.81819006 0 0 0 -0.058,-0.003 z m 4.8788,10e-6 a 0.81819006,0.81819006 0 0 0 -0.058,0.003 0.81819006,0.81819006 0 0 0 -0.7414,0.88774 0.81819006,0.81819006 0 0 0 0.8875,0.74223 0.81819006,0.81819006 0 0 0 0.742,-0.88833 0.81819006,0.81819006 0 0 0 -0.8303,-0.74433 z m 4.939,-3e-5 a 0.81819006,0.81819006 0 0 0 -0.8305,0.74454 0.81819006,0.81819006 0 0 0 0.7418,0.88874 0.81819006,0.81819006 0 0 0 0.8877,-0.7421 0.81819006,0.81819006 0 0 0 -0.741,-0.88807 0.81819006,0.81819006 0 0 0 -0.059,-0.003 z m 4.8795,-2e-5 a 0.81819006,0.81819006 0 0 0 -0.059,0.003 0.81819006,0.81819006 0 0 0 -0.7422,0.88784 0.81819006,0.81819006 0 0 0 0.8888,0.74169 0.81819006,0.81819006 0 0 0 0.7415,-0.88841 0.81819006,0.81819006 0 0 0 -0.8294,-0.7449 z m 4.9388,4e-5 a 0.81819006,0.81819006 0 0 0 -0.8304,0.74456 0.81819006,0.81819006 0 0 0 0.7417,0.88872 0.81819006,0.81819006 0 0 0 0.8878,-0.74211 0.81819006,0.81819006 0 0 0 -0.7423,-0.88752 0.81819006,0.81819006 0 0 0 -0.058,-0.003 z m 4.8795,-2e-5 a 0.81819006,0.81819006 0 0 0 -0.058,0.003 0.81819006,0.81819006 0 0 0 -0.742,0.88774 0.81819006,0.81819006 0 0 0 0.8875,0.74225 0.81819006,0.81819006 0 0 0 0.742,-0.88834 0.81819006,0.81819006 0 0 0 -0.8303,-0.74431 z m 4.9383,0 a 0.81819006,0.81819006 0 0 0 -0.8297,0.74454 0.81819006,0.81819006 0 0 0 0.7413,0.88839 0.81819006,0.81819006 0 0 0 0.8883,-0.74204 0.81819006,0.81819006 0 0 0 -0.7423,-0.88752 0.81819006,0.81819006 0 0 0 -0.059,-0.003 z m 4.8801,2e-5 a 0.81819006,0.81819006 0 0 0 -0.059,0.003 0.81819006,0.81819006 0 0 0 -0.7419,0.88774 0.81819006,0.81819006 0 0 0 0.8886,0.74171 0.81819006,0.81819006 0 0 0 0.742,-0.88842 0.81819006,0.81819006 0 0 0 -0.8304,-0.74439 z m 4.9388,-4e-5 a 0.81819006,0.81819006 0 0 0 -0.8303,0.74464 0.81819006,0.81819006 0 0 0 0.7416,0.88868 0.81819006,0.81819006 0 0 0 0.8878,-0.74212 0.81819006,0.81819006 0 0 0 -0.7423,-0.88752 0.81819006,0.81819006 0 0 0 -0.058,-0.003 z m 4.879,3e-5 a 0.81819006,0.81819006 0 0 0 -0.058,0.003 0.81819006,0.81819006 0 0 0 -0.7421,0.88774 0.81819006,0.81819006 0 0 0 0.8876,0.74224 0.81819006,0.81819006 0 0 0 0.7422,-0.88833 0.81819006,0.81819006 0 0 0 -0.8306,-0.74439 z m 4.9387,2e-5 a 0.81819006,0.81819006 0 0 0 -0.8297,0.74449 0.81819006,0.81819006 0 0 0 0.7414,0.88837 0.81819006,0.81819006 0 0 0 0.8885,-0.74202 0.81819006,0.81819006 0 0 0 -0.7422,-0.8876 0.81819006,0.81819006 0 0 0 -0.058,-0.003 z m 4.8802,0 a 0.81819006,0.81819006 0 0 0 -0.059,0.003 0.81819006,0.81819006 0 0 0 -0.7414,0.88774 0.81819006,0.81819006 0 0 0 0.8874,0.74225 0.81819006,0.81819006 0 0 0 0.7421,-0.88834 0.81819006,0.81819006 0 0 0 -0.8305,-0.74434 z m 4.9382,0 a 0.81819006,0.81819006 0 0 0 -0.8302,0.74458 0.81819006,0.81819006 0 0 0 0.7425,0.88787 0.81819006,0.81819006 0 0 0 0.8876,-0.74202 0.81819006,0.81819006 0 0 0 -0.7411,-0.88814 0.81819006,0.81819006 0 0 0 -0.058,-0.003 z m 4.8797,-10e-6 a 0.81819006,0.81819006 0 0 0 -0.058,0.003 0.81819006,0.81819006 0 0 0 -0.7419,0.88774 0.81819006,0.81819006 0 0 0 0.8887,0.7417 0.81819006,0.81819006 0 0 0 0.7414,-0.88833 0.81819006,0.81819006 0 0 0 -0.8305,-0.74433 z m 4.9388,-4e-5 a 0.81819006,0.81819006 0 0 0 -0.8304,0.74455 0.81819006,0.81819006 0 0 0 0.7414,0.88845 0.81819006,0.81819006 0 0 0 0.8885,-0.74211 0.81819006,0.81819006 0 0 0 -0.7423,-0.88759 0.81819006,0.81819006 0 0 0 -0.058,-0.003 z m 4.8794,5e-5 a 0.81819006,0.81819006 0 0 0 -0.059,0.003 0.81819006,0.81819006 0 0 0 -0.7414,0.88774 0.81819006,0.81819006 0 0 0 0.8875,0.74226 0.81819006,0.81819006 0 0 0 0.742,-0.88835 0.81819006,0.81819006 0 0 0 -0.8305,-0.74433 z m 4.939,-2e-5 a 0.81819006,0.81819006 0 0 0 -0.8304,0.74455 0.81819006,0.81819006 0 0 0 0.7417,0.88874 0.81819006,0.81819006 0 0 0 0.8877,-0.74212 0.81819006,0.81819006 0 0 0 -0.7411,-0.88807 0.81819006,0.81819006 0 0 0 -0.058,-0.003 z m -44.2118,4.90862 a 0.81819006,0.81819006 0 0 0 -0.059,0.003 0.81819006,0.81819006 0 0 0 -0.742,0.88782 0.81819006,0.81819006 0 0 0 0.8887,0.74172 0.81819006,0.81819006 0 0 0 0.7415,-0.88833 0.81819006,0.81819006 0 0 0 -0.8298,-0.74523 z m -49.0913,6.3e-4 a 0.81819006,0.81819006 0 0 0 -0.058,0.003 0.81819006,0.81819006 0 0 0 -0.7422,0.88783 0.81819006,0.81819006 0 0 0 0.8887,0.74171 0.81819006,0.81819006 0 0 0 0.7417,-0.88843 0.81819006,0.81819006 0 0 0 -0.8294,-0.74491 z m 4.9382,0 a 0.81819006,0.81819006 0 0 0 -0.8304,0.74448 0.81819006,0.81819006 0 0 0 0.7418,0.88868 0.81819006,0.81819006 0 0 0 0.8876,-0.74202 0.81819006,0.81819006 0 0 0 -0.7411,-0.88806 0.81819006,0.81819006 0 0 0 -0.059,-0.003 z m 4.8796,-10e-6 a 0.81819006,0.81819006 0 0 0 -0.058,0.003 0.81819006,0.81819006 0 0 0 -0.7422,0.88774 0.81819006,0.81819006 0 0 0 0.8876,0.74226 0.81819006,0.81819006 0 0 0 0.7421,-0.88841 0.81819006,0.81819006 0 0 0 -0.8305,-0.74438 z m 4.9388,10e-6 a 0.81819006,0.81819006 0 0 0 -0.8304,0.74456 0.81819006,0.81819006 0 0 0 0.7426,0.8879 0.81819006,0.81819006 0 0 0 0.8877,-0.74202 0.81819006,0.81819006 0 0 0 -0.7422,-0.88759 0.81819006,0.81819006 0 0 0 -0.058,-0.003 z m 4.8796,-10e-6 a 0.81819006,0.81819006 0 0 0 -0.059,0.003 0.81819006,0.81819006 0 0 0 -0.7414,0.88774 0.81819006,0.81819006 0 0 0 0.8875,0.74224 0.81819006,0.81819006 0 0 0 0.742,-0.88841 0.81819006,0.81819006 0 0 0 -0.8305,-0.7443 z m 4.9388,2e-5 a 0.81819006,0.81819006 0 0 0 -0.8299,0.74449 0.81819006,0.81819006 0 0 0 0.7416,0.88844 0.81819006,0.81819006 0 0 0 0.8883,-0.74203 0.81819006,0.81819006 0 0 0 -0.7423,-0.88752 0.81819006,0.81819006 0 0 0 -0.059,-0.003 z m 4.8796,-1e-5 a 0.81819006,0.81819006 0 0 0 -0.058,0.003 0.81819006,0.81819006 0 0 0 -0.7419,0.88783 0.81819006,0.81819006 0 0 0 0.8887,0.74171 0.81819006,0.81819006 0 0 0 0.7413,-0.88843 0.81819006,0.81819006 0 0 0 -0.8305,-0.7443 z m 4.9388,-4e-5 a 0.81819006,0.81819006 0 0 0 -0.8304,0.74456 0.81819006,0.81819006 0 0 0 0.7417,0.88876 0.81819006,0.81819006 0 0 0 0.8878,-0.74212 0.81819006,0.81819006 0 0 0 -0.7411,-0.88806 0.81819006,0.81819006 0 0 0 -0.059,-0.003 z m 4.8794,7e-5 a 0.81819006,0.81819006 0 0 0 -0.059,0.003 0.81819006,0.81819006 0 0 0 -0.7414,0.88774 0.81819006,0.81819006 0 0 0 0.8875,0.74226 0.81819006,0.81819006 0 0 0 0.742,-0.88841 0.81819006,0.81819006 0 0 0 -0.8305,-0.74432 z m 4.9383,0 a 0.81819006,0.81819006 0 0 0 -0.8296,0.74447 0.81819006,0.81819006 0 0 0 0.7413,0.88839 0.81819006,0.81819006 0 0 0 0.8884,-0.74202 0.81819006,0.81819006 0 0 0 -0.7422,-0.88753 0.81819006,0.81819006 0 0 0 -0.059,-0.003 z m 9.8184,-7e-5 a 0.81819006,0.81819006 0 0 0 -0.8303,0.74449 0.81819006,0.81819006 0 0 0 0.7416,0.88868 0.81819006,0.81819006 0 0 0 0.8878,-0.74211 0.81819006,0.81819006 0 0 0 -0.741,-0.88808 0.81819006,0.81819006 0 0 0 -0.059,-0.003 z m 4.8794,7e-5 a 0.81819006,0.81819006 0 0 0 -0.058,0.003 0.81819006,0.81819006 0 0 0 -0.7422,0.88774 0.81819006,0.81819006 0 0 0 0.8875,0.74224 0.81819006,0.81819006 0 0 0 0.7422,-0.88841 0.81819006,0.81819006 0 0 0 -0.8305,-0.74438 z m 4.9397,-2e-5 a 0.81819006,0.81819006 0 0 0 -0.8305,0.74456 0.81819006,0.81819006 0 0 0 0.7414,0.88839 0.81819006,0.81819006 0 0 0 0.8885,-0.74203 0.81819006,0.81819006 0 0 0 -0.7422,-0.88759 0.81819006,0.81819006 0 0 0 -0.058,-0.003 z m 4.8795,-2e-5 a 0.81819006,0.81819006 0 0 0 -0.058,0.003 0.81819006,0.81819006 0 0 0 -0.7422,0.88772 0.81819006,0.81819006 0 0 0 0.8889,0.74179 0.81819006,0.81819006 0 0 0 0.7412,-0.88834 0.81819006,0.81819006 0 0 0 -0.8293,-0.74486 z m 4.9382,0 a 0.81819006,0.81819006 0 0 0 -0.8303,0.74456 0.81819006,0.81819006 0 0 0 0.7417,0.88875 0.81819006,0.81819006 0 0 0 0.8877,-0.74211 0.81819006,0.81819006 0 0 0 -0.7411,-0.88814 0.81819006,0.81819006 0 0 0 -0.058,-0.003 z m 4.8796,-2e-5 a 0.81819006,0.81819006 0 0 0 -0.058,0.003 0.81819006,0.81819006 0 0 0 -0.7419,0.88774 0.81819006,0.81819006 0 0 0 0.8876,0.74226 0.81819006,0.81819006 0 0 0 0.742,-0.88832 0.81819006,0.81819006 0 0 0 -0.8304,-0.74432 z m 4.9388,4e-5 a 0.81819006,0.81819006 0 0 0 -0.8304,0.74456 0.81819006,0.81819006 0 0 0 0.7417,0.88875 0.81819006,0.81819006 0 0 0 0.8877,-0.74202 0.81819006,0.81819006 0 0 0 -0.7423,-0.88759 0.81819006,0.81819006 0 0 0 -0.058,-0.003 z m 4.8796,-2e-5 a 0.81819006,0.81819006 0 0 0 -0.059,0.003 0.81819006,0.81819006 0 0 0 -0.7414,0.88775 0.81819006,0.81819006 0 0 0 0.8876,0.74226 0.81819006,0.81819006 0 0 0 0.7421,-0.88834 0.81819006,0.81819006 0 0 0 -0.8306,-0.74432 z m 4.9387,5e-5 a 0.81819006,0.81819006 0 0 0 -0.8297,0.74447 0.81819006,0.81819006 0 0 0 0.7414,0.8884 0.81819006,0.81819006 0 0 0 0.8884,-0.74204 0.81819006,0.81819006 0 0 0 -0.7422,-0.88752 0.81819006,0.81819006 0 0 0 -0.059,-0.003 z m -93.303,4.90848 a 0.81819006,0.81819006 0 0 0 -0.058,0.003 0.81819006,0.81819006 0 0 0 -0.7421,0.88774 0.81819006,0.81819006 0 0 0 0.8887,0.74171 0.81819006,0.81819006 0 0 0 0.7414,-0.88834 0.81819006,0.81819006 0 0 0 -0.8296,-0.74524 z m 19.6368,1e-5 a 0.81819006,0.81819006 0 0 0 -0.059,0.003 0.81819006,0.81819006 0 0 0 -0.7418,0.88774 0.81819006,0.81819006 0 0 0 0.8887,0.74172 0.81819006,0.81819006 0 0 0 0.7412,-0.88834 0.81819006,0.81819006 0 0 0 -0.8296,-0.74518 z m 4.9383,0 a 0.81819006,0.81819006 0 0 0 -0.8306,0.74516 0.81819006,0.81819006 0 0 0 0.7415,0.88841 0.81819006,0.81819006 0 0 0 0.8882,-0.74201 0.81819006,0.81819006 0 0 0 -0.7422,-0.8876 0.81819006,0.81819006 0 0 0 -0.058,-0.003 z m 4.8795,-1e-5 a 0.81819006,0.81819006 0 0 0 -0.058,0.003 0.81819006,0.81819006 0 0 0 -0.7421,0.88834 0.81819006,0.81819006 0 0 0 0.8877,0.74224 0.81819006,0.81819006 0 0 0 0.742,-0.88834 0.81819006,0.81819006 0 0 0 -0.83,-0.74547 z m 14.757,6e-5 a 0.81819006,0.81819006 0 0 0 -0.8301,0.74505 0.81819006,0.81819006 0 0 0 0.7416,0.88867 0.81819006,0.81819006 0 0 0 0.8878,-0.74211 0.81819006,0.81819006 0 0 0 -0.7423,-0.88752 0.81819006,0.81819006 0 0 0 -0.058,-0.003 z m 9.8179,-3e-5 a 0.81819006,0.81819006 0 0 0 -0.8297,0.74515 0.81819006,0.81819006 0 0 0 0.7414,0.88837 0.81819006,0.81819006 0 0 0 0.8884,-0.74202 0.81819006,0.81819006 0 0 0 -0.7423,-0.88754 0.81819006,0.81819006 0 0 0 -0.059,-0.003 z m 4.88,3e-5 a 0.81819006,0.81819006 0 0 0 -0.058,0.003 0.81819006,0.81819006 0 0 0 -0.7415,0.88835 0.81819006,0.81819006 0 0 0 0.8873,0.74192 0.81819006,0.81819006 0 0 0 0.7421,-0.88781 0.81819006,0.81819006 0 0 0 -0.8299,-0.74553 z m 19.6364,-3e-5 a 0.81819006,0.81819006 0 0 0 -0.059,0.003 0.81819006,0.81819006 0 0 0 -0.7413,0.88765 0.81819006,0.81819006 0 0 0 0.8875,0.74226 0.81819006,0.81819006 0 0 0 0.742,-0.88834 0.81819006,0.81819006 0 0 0 -0.8299,-0.74547 z m 14.7572,-1e-5 a 0.81819006,0.81819006 0 0 0 -0.8305,0.74515 0.81819006,0.81819006 0 0 0 0.7415,0.88842 0.81819006,0.81819006 0 0 0 0.8881,-0.74201 0.81819006,0.81819006 0 0 0 -0.742,-0.88753 0.81819006,0.81819006 0 0 0 -0.058,-0.003 z m -88.3649,6.4e-4 a 0.81819006,0.81819006 0 0 0 -0.8297,0.74455 0.81819006,0.81819006 0 0 0 0.7413,0.88838 0.81819006,0.81819006 0 0 0 0.8886,-0.74203 0.81819006,0.81819006 0 0 0 -0.7423,-0.88759 0.81819006,0.81819006 0 0 0 -0.059,-0.003 z m 4.8796,-3e-5 a 0.81819006,0.81819006 0 0 0 -0.058,0.003 0.81819006,0.81819006 0 0 0 -0.7416,0.88783 0.81819006,0.81819006 0 0 0 0.8876,0.74223 0.81819006,0.81819006 0 0 0 0.742,-0.88832 0.81819006,0.81819006 0 0 0 -0.8304,-0.74438 z m 4.9388,2e-5 a 0.81819006,0.81819006 0 0 0 -0.8304,0.74456 0.81819006,0.81819006 0 0 0 0.7419,0.88872 0.81819006,0.81819006 0 0 0 0.8877,-0.74211 0.81819006,0.81819006 0 0 0 -0.742,-0.88728 0.81819006,0.81819006 0 0 0 -0.058,-0.003 z m 19.6366,6e-5 a 0.81819006,0.81819006 0 0 0 -0.8302,0.74455 0.81819006,0.81819006 0 0 0 0.7424,0.88789 0.81819006,0.81819006 0 0 0 0.8879,-0.74202 0.81819006,0.81819006 0 0 0 -0.7412,-0.88808 0.81819006,0.81819006 0 0 0 -0.059,-0.003 z m 4.8797,-3e-5 a 0.81819006,0.81819006 0 0 0 -0.059,0.003 0.81819006,0.81819006 0 0 0 -0.7413,0.88767 0.81819006,0.81819006 0 0 0 0.8875,0.74224 0.81819006,0.81819006 0 0 0 0.742,-0.88834 0.81819006,0.81819006 0 0 0 -0.8305,-0.74431 z m 9.8178,-2e-5 a 0.81819006,0.81819006 0 0 0 -0.058,0.003 0.81819006,0.81819006 0 0 0 -0.7418,0.88776 0.81819006,0.81819006 0 0 0 0.8887,0.74169 0.81819006,0.81819006 0 0 0 0.7415,-0.88834 0.81819006,0.81819006 0 0 0 -0.8306,-0.74439 z m 14.7579,0 a 0.81819006,0.81819006 0 0 0 -0.8305,0.74455 0.81819006,0.81819006 0 0 0 0.7418,0.88874 0.81819006,0.81819006 0 0 0 0.8878,-0.7421 0.81819006,0.81819006 0 0 0 -0.7423,-0.88759 0.81819006,0.81819006 0 0 0 -0.058,-0.003 z m 4.8795,-10e-6 a 0.81819006,0.81819006 0 0 0 -0.058,0.003 0.81819006,0.81819006 0 0 0 -0.7422,0.88776 0.81819006,0.81819006 0 0 0 0.8889,0.74175 0.81819006,0.81819006 0 0 0 0.7414,-0.88842 0.81819006,0.81819006 0 0 0 -0.8294,-0.74489 z m 4.9382,0 a 0.81819006,0.81819006 0 0 0 -0.8298,0.74455 0.81819006,0.81819006 0 0 0 0.7415,0.88844 0.81819006,0.81819006 0 0 0 0.8883,-0.74203 0.81819006,0.81819006 0 0 0 -0.7424,-0.8876 0.81819006,0.81819006 0 0 0 -0.058,-0.003 z m 9.8184,2e-5 a 0.81819006,0.81819006 0 0 0 -0.8304,0.74454 0.81819006,0.81819006 0 0 0 0.7417,0.88874 0.81819006,0.81819006 0 0 0 0.8878,-0.7421 0.81819006,0.81819006 0 0 0 -0.7412,-0.88808 0.81819006,0.81819006 0 0 0 -0.059,-0.003 z m 4.8796,-2e-5 a 0.81819006,0.81819006 0 0 0 -0.059,0.003 0.81819006,0.81819006 0 0 0 -0.7418,0.88776 0.81819006,0.81819006 0 0 0 0.8887,0.74169 0.81819006,0.81819006 0 0 0 0.7413,-0.88833 0.81819006,0.81819006 0 0 0 -0.8293,-0.74489 z m -83.4253,4.90853 a 0.81819006,0.81819006 0 0 0 -0.8305,0.74514 0.81819006,0.81819006 0 0 0 0.7413,0.88839 0.81819006,0.81819006 0 0 0 0.8886,-0.74203 0.81819006,0.81819006 0 0 0 -0.7423,-0.88757 0.81819006,0.81819006 0 0 0 -0.058,-0.003 z m 4.8794,6e-5 a 0.81819006,0.81819006 0 0 0 -0.059,0.003 0.81819006,0.81819006 0 0 0 -0.7415,0.88834 0.81819006,0.81819006 0 0 0 0.8881,0.74114 0.81819006,0.81819006 0 0 0 0.7421,-0.88782 0.81819006,0.81819006 0 0 0 -0.83,-0.74547 z m 4.9381,0 a 0.81819006,0.81819006 0 0 0 -0.8304,0.74504 0.81819006,0.81819006 0 0 0 0.7418,0.88876 0.81819006,0.81819006 0 0 0 0.8877,-0.74211 0.81819006,0.81819006 0 0 0 -0.7409,-0.88812 0.81819006,0.81819006 0 0 0 -0.058,-0.003 z m 4.8796,-3e-5 a 0.81819006,0.81819006 0 0 0 -0.058,0.003 0.81819006,0.81819006 0 0 0 -0.742,0.88834 0.81819006,0.81819006 0 0 0 0.8883,0.7414 0.81819006,0.81819006 0 0 0 0.7414,-0.88774 0.81819006,0.81819006 0 0 0 -0.8299,-0.74547 z m 4.939,-3e-5 a 0.81819006,0.81819006 0 0 0 -0.8306,0.74514 0.81819006,0.81819006 0 0 0 0.7424,0.88758 0.81819006,0.81819006 0 0 0 0.8878,-0.74143 0.81819006,0.81819006 0 0 0 -0.7419,-0.88873 0.81819006,0.81819006 0 0 0 -0.058,-0.003 z m 4.8794,6e-5 a 0.81819006,0.81819006 0 0 0 -0.059,0.003 0.81819006,0.81819006 0 0 0 -0.7414,0.88774 0.81819006,0.81819006 0 0 0 0.8875,0.74225 0.81819006,0.81819006 0 0 0 0.742,-0.88841 0.81819006,0.81819006 0 0 0 -0.8301,-0.74547 z m 4.9381,0 a 0.81819006,0.81819006 0 0 0 -0.8296,0.74505 0.81819006,0.81819006 0 0 0 0.7416,0.88846 0.81819006,0.81819006 0 0 0 0.8882,-0.74211 0.81819006,0.81819006 0 0 0 -0.7416,-0.88867 0.81819006,0.81819006 0 0 0 -0.059,-0.003 z m 4.8803,-6e-5 a 0.81819006,0.81819006 0 0 0 -0.059,0.003 0.81819006,0.81819006 0 0 0 -0.742,0.88833 0.81819006,0.81819006 0 0 0 0.8887,0.74172 0.81819006,0.81819006 0 0 0 0.7413,-0.88842 0.81819006,0.81819006 0 0 0 -0.8295,-0.74517 z m 4.9387,4e-5 a 0.81819006,0.81819006 0 0 0 -0.8301,0.74506 0.81819006,0.81819006 0 0 0 0.7418,0.8887 0.81819006,0.81819006 0 0 0 0.8877,-0.74212 0.81819006,0.81819006 0 0 0 -0.7414,-0.88836 0.81819006,0.81819006 0 0 0 -0.058,-0.003 z m 4.8797,-10e-6 a 0.81819006,0.81819006 0 0 0 -0.059,0.003 0.81819006,0.81819006 0 0 0 -0.7413,0.88833 0.81819006,0.81819006 0 0 0 0.8879,0.74111 0.81819006,0.81819006 0 0 0 0.7421,-0.88775 0.81819006,0.81819006 0 0 0 -0.8307,-0.74468 z m 4.9382,-1e-5 a 0.81819006,0.81819006 0 0 0 -0.8297,0.74514 0.81819006,0.81819006 0 0 0 0.7414,0.8884 0.81819006,0.81819006 0 0 0 0.8884,-0.74203 0.81819006,0.81819006 0 0 0 -0.7417,-0.88866 0.81819006,0.81819006 0 0 0 -0.059,-0.003 z m 4.88,2e-5 a 0.81819006,0.81819006 0 0 0 -0.058,0.003 0.81819006,0.81819006 0 0 0 -0.7421,0.88842 0.81819006,0.81819006 0 0 0 0.8887,0.7417 0.81819006,0.81819006 0 0 0 0.7415,-0.88833 0.81819006,0.81819006 0 0 0 -0.8297,-0.74522 z m 4.9383,0 a 0.81819006,0.81819006 0 0 0 -0.8302,0.74506 0.81819006,0.81819006 0 0 0 0.7422,0.88753 0.81819006,0.81819006 0 0 0 0.8877,-0.74145 0.81819006,0.81819006 0 0 0 -0.7414,-0.88835 0.81819006,0.81819006 0 0 0 -0.058,-0.003 z m 4.8795,-10e-6 a 0.81819006,0.81819006 0 0 0 -0.058,0.003 0.81819006,0.81819006 0 0 0 -0.7422,0.88825 0.81819006,0.81819006 0 0 0 0.8882,0.74109 0.81819006,0.81819006 0 0 0 0.7422,-0.88774 0.81819006,0.81819006 0 0 0 -0.831,-0.74467 z m 4.9397,-3e-5 a 0.81819006,0.81819006 0 0 0 -0.8305,0.74514 0.81819006,0.81819006 0 0 0 0.7415,0.88845 0.81819006,0.81819006 0 0 0 0.8883,-0.74202 0.81819006,0.81819006 0 0 0 -0.7424,-0.88758 0.81819006,0.81819006 0 0 0 -0.058,-0.003 z m 9.8177,-2e-5 a 0.81819006,0.81819006 0 0 0 -0.8306,0.74515 0.81819006,0.81819006 0 0 0 0.7419,0.88875 0.81819006,0.81819006 0 0 0 0.8877,-0.7421 0.81819006,0.81819006 0 0 0 -0.7413,-0.88839 0.81819006,0.81819006 0 0 0 -0.059,-0.003 z m 4.8794,6e-5 a 0.81819006,0.81819006 0 0 0 -0.058,0.003 0.81819006,0.81819006 0 0 0 -0.742,0.88832 0.81819006,0.81819006 0 0 0 0.8883,0.7414 0.81819006,0.81819006 0 0 0 0.7414,-0.88774 0.81819006,0.81819006 0 0 0 -0.8299,-0.74546 z m 4.939,-4e-5 a 0.81819006,0.81819006 0 0 0 -0.8305,0.74514 0.81819006,0.81819006 0 0 0 0.7416,0.88876 0.81819006,0.81819006 0 0 0 0.8878,-0.74203 0.81819006,0.81819006 0 0 0 -0.7417,-0.88866 0.81819006,0.81819006 0 0 0 -0.058,-0.003 z m -93.3037,6.3e-4 a 0.81819006,0.81819006 0 0 0 -0.058,0.003 0.81819006,0.81819006 0 0 0 -0.7422,0.88782 0.81819006,0.81819006 0 0 0 0.8875,0.74226 0.81819006,0.81819006 0 0 0 0.7422,-0.88841 0.81819006,0.81819006 0 0 0 -0.8305,-0.74438 z m 78.5464,2e-5 a 0.81819006,0.81819006 0 0 0 -0.059,0.003 0.81819006,0.81819006 0 0 0 -0.7414,0.88775 0.81819006,0.81819006 0 0 0 0.8875,0.74226 0.81819006,0.81819006 0 0 0 0.742,-0.88842 0.81819006,0.81819006 0 0 0 -0.8306,-0.74432 z m -78.5464,4.90853 a 0.81819006,0.81819006 0 0 0 -0.059,0.003 0.81819006,0.81819006 0 0 0 -0.7414,0.88844 0.81819006,0.81819006 0 0 0 0.8881,0.74109 0.81819006,0.81819006 0 0 0 0.7421,-0.88774 0.81819006,0.81819006 0 0 0 -0.8301,-0.74553 z m 4.9388,5e-5 a 0.81819006,0.81819006 0 0 0 -0.8304,0.74515 0.81819006,0.81819006 0 0 0 0.7422,0.88752 0.81819006,0.81819006 0 0 0 0.8878,-0.74143 0.81819006,0.81819006 0 0 0 -0.7417,-0.88869 0.81819006,0.81819006 0 0 0 -0.058,-0.003 z m 4.8803,10e-6 a 0.81819006,0.81819006 0 0 0 -0.059,0.003 0.81819006,0.81819006 0 0 0 -0.742,0.88833 0.81819006,0.81819006 0 0 0 0.8887,0.74176 0.81819006,0.81819006 0 0 0 0.7414,-0.88843 0.81819006,0.81819006 0 0 0 -0.8296,-0.74516 z m 4.9381,-10e-6 a 0.81819006,0.81819006 0 0 0 -0.8297,0.74515 0.81819006,0.81819006 0 0 0 0.7419,0.88728 0.81819006,0.81819006 0 0 0 0.8883,-0.74142 0.81819006,0.81819006 0 0 0 -0.7418,-0.88875 0.81819006,0.81819006 0 0 0 -0.058,-0.003 z m 4.8796,-3e-5 a 0.81819006,0.81819006 0 0 0 -0.058,0.003 0.81819006,0.81819006 0 0 0 -0.7419,0.88834 0.81819006,0.81819006 0 0 0 0.888,0.7411 0.81819006,0.81819006 0 0 0 0.7419,-0.88775 0.81819006,0.81819006 0 0 0 -0.8299,-0.74546 z m 4.9388,5e-5 a 0.81819006,0.81819006 0 0 0 -0.8305,0.74508 0.81819006,0.81819006 0 0 0 0.7424,0.88759 0.81819006,0.81819006 0 0 0 0.8878,-0.74144 0.81819006,0.81819006 0 0 0 -0.7415,-0.88838 0.81819006,0.81819006 0 0 0 -0.058,-0.003 z m 4.8796,-1e-5 a 0.81819006,0.81819006 0 0 0 -0.059,0.003 0.81819006,0.81819006 0 0 0 -0.7414,0.88842 0.81819006,0.81819006 0 0 0 0.8881,0.7411 0.81819006,0.81819006 0 0 0 0.7419,-0.88775 0.81819006,0.81819006 0 0 0 -0.8299,-0.74546 z m 4.9388,-5e-5 a 0.81819006,0.81819006 0 0 0 -0.8305,0.74515 0.81819006,0.81819006 0 0 0 0.7419,0.8873 0.81819006,0.81819006 0 0 0 0.8885,-0.74136 0.81819006,0.81819006 0 0 0 -0.7417,-0.88869 0.81819006,0.81819006 0 0 0 -0.058,-0.003 z m 4.8794,8e-5 a 0.81819006,0.81819006 0 0 0 -0.058,0.003 0.81819006,0.81819006 0 0 0 -0.742,0.88832 0.81819006,0.81819006 0 0 0 0.8883,0.74142 0.81819006,0.81819006 0 0 0 0.7414,-0.88774 0.81819006,0.81819006 0 0 0 -0.8299,-0.74547 z m 4.939,-5e-5 a 0.81819006,0.81819006 0 0 0 -0.8303,0.74515 0.81819006,0.81819006 0 0 0 0.742,0.88752 0.81819006,0.81819006 0 0 0 0.8879,-0.74152 0.81819006,0.81819006 0 0 0 -0.7414,-0.88838 0.81819006,0.81819006 0 0 0 -0.059,-0.003 z m 4.8795,-3e-5 a 0.81819006,0.81819006 0 0 0 -0.059,0.003 0.81819006,0.81819006 0 0 0 -0.7414,0.88842 0.81819006,0.81819006 0 0 0 0.888,0.7411 0.81819006,0.81819006 0 0 0 0.7421,-0.88774 0.81819006,0.81819006 0 0 0 -0.83,-0.74553 z m 4.9387,5e-5 a 0.81819006,0.81819006 0 0 0 -0.8303,0.74514 0.81819006,0.81819006 0 0 0 0.7422,0.88754 0.81819006,0.81819006 0 0 0 0.8878,-0.74144 0.81819006,0.81819006 0 0 0 -0.7417,-0.88868 0.81819006,0.81819006 0 0 0 -0.058,-0.003 z m 4.8797,-2e-5 a 0.81819006,0.81819006 0 0 0 -0.058,0.003 0.81819006,0.81819006 0 0 0 -0.7419,0.88832 0.81819006,0.81819006 0 0 0 0.8884,0.74141 0.81819006,0.81819006 0 0 0 0.7416,-0.88773 0.81819006,0.81819006 0 0 0 -0.8297,-0.74524 z m 4.9381,0 a 0.81819006,0.81819006 0 0 0 -0.8302,0.74515 0.81819006,0.81819006 0 0 0 0.7421,0.88752 0.81819006,0.81819006 0 0 0 0.8886,-0.74152 0.81819006,0.81819006 0 0 0 -0.7418,-0.88874 0.81819006,0.81819006 0 0 0 -0.058,-0.003 z m 4.8795,-2e-5 a 0.81819006,0.81819006 0 0 0 -0.058,0.003 0.81819006,0.81819006 0 0 0 -0.7415,0.88833 0.81819006,0.81819006 0 0 0 0.8876,0.74225 0.81819006,0.81819006 0 0 0 0.7422,-0.88843 0.81819006,0.81819006 0 0 0 -0.831,-0.74469 z m 4.939,2e-5 a 0.81819006,0.81819006 0 0 0 -0.8305,0.74515 0.81819006,0.81819006 0 0 0 0.7424,0.88757 0.81819006,0.81819006 0 0 0 0.8877,-0.7415 0.81819006,0.81819006 0 0 0 -0.7417,-0.88875 0.81819006,0.81819006 0 0 0 -0.058,-0.003 z m 4.8801,2e-5 a 0.81819006,0.81819006 0 0 0 -0.059,0.003 0.81819006,0.81819006 0 0 0 -0.7419,0.88851 0.81819006,0.81819006 0 0 0 0.8883,0.7414 0.81819006,0.81819006 0 0 0 0.7414,-0.88774 0.81819006,0.81819006 0 0 0 -0.8295,-0.74517 z m 4.9382,0 a 0.81819006,0.81819006 0 0 0 -0.8297,0.74514 0.81819006,0.81819006 0 0 0 0.7414,0.88843 0.81819006,0.81819006 0 0 0 0.8883,-0.74202 0.81819006,0.81819006 0 0 0 -0.7417,-0.88869 0.81819006,0.81819006 0 0 0 -0.058,-0.003 z m 4.8797,-2e-5 a 0.81819006,0.81819006 0 0 0 -0.058,0.003 0.81819006,0.81819006 0 0 0 -0.7418,0.88842 0.81819006,0.81819006 0 0 0 0.8876,0.74224 0.81819006,0.81819006 0 0 0 0.7419,-0.88833 0.81819006,0.81819006 0 0 0 -0.8299,-0.74549 z m 4.9388,-4e-5 a 0.81819006,0.81819006 0 0 0 -0.8305,0.74515 0.81819006,0.81819006 0 0 0 0.7423,0.88759 0.81819006,0.81819006 0 0 0 0.8877,-0.74144 0.81819006,0.81819006 0 0 0 -0.7414,-0.88838 0.81819006,0.81819006 0 0 0 -0.059,-0.003 z m -93.3031,4.90921 a 0.81819006,0.81819006 0 0 0 -0.058,0.003 0.81819006,0.81819006 0 0 0 -0.7415,0.88834 0.81819006,0.81819006 0 0 0 0.8881,0.74109 0.81819006,0.81819006 0 0 0 0.7422,-0.88775 0.81819006,0.81819006 0 0 0 -0.8301,-0.74552 z m 4.9382,0 a 0.81819006,0.81819006 0 0 0 -0.8302,0.74516 0.81819006,0.81819006 0 0 0 0.742,0.88752 0.81819006,0.81819006 0 0 0 0.8878,-0.74142 0.81819006,0.81819006 0 0 0 -0.7413,-0.88837 0.81819006,0.81819006 0 0 0 -0.059,-0.003 z m 4.8796,-1e-5 a 0.81819006,0.81819006 0 0 0 -0.058,0.003 0.81819006,0.81819006 0 0 0 -0.7422,0.88824 0.81819006,0.81819006 0 0 0 0.8885,0.74146 0.81819006,0.81819006 0 0 0 0.7415,-0.88774 0.81819006,0.81819006 0 0 0 -0.8308,-0.74467 z m 4.9395,-10e-6 a 0.81819006,0.81819006 0 0 0 -0.8306,0.74515 0.81819006,0.81819006 0 0 0 0.7412,0.88812 0.81819006,0.81819006 0 0 0 0.8884,-0.74135 0.81819006,0.81819006 0 0 0 -0.7417,-0.88873 0.81819006,0.81819006 0 0 0 -0.058,-0.003 z m 4.8789,0 a 0.81819006,0.81819006 0 0 0 -0.059,0.003 0.81819006,0.81819006 0 0 0 -0.7413,0.88834 0.81819006,0.81819006 0 0 0 0.888,0.7411 0.81819006,0.81819006 0 0 0 0.7419,-0.88775 0.81819006,0.81819006 0 0 0 -0.8299,-0.74546 z m 4.9388,5e-5 a 0.81819006,0.81819006 0 0 0 -0.8304,0.74505 0.81819006,0.81819006 0 0 0 0.7423,0.88759 0.81819006,0.81819006 0 0 0 0.8878,-0.74143 0.81819006,0.81819006 0 0 0 -0.7415,-0.88837 0.81819006,0.81819006 0 0 0 -0.058,-0.003 z m 4.8796,-3e-5 a 0.81819006,0.81819006 0 0 0 -0.059,0.003 0.81819006,0.81819006 0 0 0 -0.742,0.88834 0.81819006,0.81819006 0 0 0 0.8883,0.7414 0.81819006,0.81819006 0 0 0 0.7416,-0.88775 0.81819006,0.81819006 0 0 0 -0.8298,-0.74516 z m 4.9388,-2e-5 a 0.81819006,0.81819006 0 0 0 -0.8305,0.74515 0.81819006,0.81819006 0 0 0 0.7424,0.88757 0.81819006,0.81819006 0 0 0 0.8877,-0.74144 0.81819006,0.81819006 0 0 0 -0.7418,-0.88867 0.81819006,0.81819006 0 0 0 -0.058,-0.003 z m 4.8794,5e-5 a 0.81819006,0.81819006 0 0 0 -0.058,0.003 0.81819006,0.81819006 0 0 0 -0.742,0.88835 0.81819006,0.81819006 0 0 0 0.8881,0.74108 0.81819006,0.81819006 0 0 0 0.7419,-0.88774 0.81819006,0.81819006 0 0 0 -0.8299,-0.74547 z m 4.9383,0 a 0.81819006,0.81819006 0 0 0 -0.8296,0.74515 0.81819006,0.81819006 0 0 0 0.741,0.88809 0.81819006,0.81819006 0 0 0 0.8884,-0.74136 0.81819006,0.81819006 0 0 0 -0.7416,-0.88867 0.81819006,0.81819006 0 0 0 -0.059,-0.003 z m 4.8802,-5e-5 a 0.81819006,0.81819006 0 0 0 -0.059,0.003 0.81819006,0.81819006 0 0 0 -0.7422,0.88833 0.81819006,0.81819006 0 0 0 0.8885,0.74139 0.81819006,0.81819006 0 0 0 0.7421,-0.88783 0.81819006,0.81819006 0 0 0 -0.8309,-0.74469 z m 4.9388,4e-5 a 0.81819006,0.81819006 0 0 0 -0.8304,0.74516 0.81819006,0.81819006 0 0 0 0.7422,0.88752 0.81819006,0.81819006 0 0 0 0.8878,-0.74144 0.81819006,0.81819006 0 0 0 -0.7414,-0.88837 0.81819006,0.81819006 0 0 0 -0.059,-0.003 z m 4.8788,10e-6 a 0.81819006,0.81819006 0 0 0 -0.058,0.003 0.81819006,0.81819006 0 0 0 -0.7422,0.88843 0.81819006,0.81819006 0 0 0 0.8881,0.74109 0.81819006,0.81819006 0 0 0 0.7421,-0.88775 0.81819006,0.81819006 0 0 0 -0.83,-0.74552 z m 4.9389,-4e-5 a 0.81819006,0.81819006 0 0 0 -0.8297,0.74507 0.81819006,0.81819006 0 0 0 0.7412,0.88807 0.81819006,0.81819006 0 0 0 0.8884,-0.74153 0.81819006,0.81819006 0 0 0 -0.7426,-0.88786 0.81819006,0.81819006 0 0 0 -0.058,-0.003 z m 4.8803,0 a 0.81819006,0.81819006 0 0 0 -0.058,0.003 0.81819006,0.81819006 0 0 0 -0.7413,0.88832 0.81819006,0.81819006 0 0 0 0.8881,0.74111 0.81819006,0.81819006 0 0 0 0.7419,-0.88775 0.81819006,0.81819006 0 0 0 -0.83,-0.74547 z m 4.9382,0 a 0.81819006,0.81819006 0 0 0 -0.8305,0.74516 0.81819006,0.81819006 0 0 0 0.7424,0.88757 0.81819006,0.81819006 0 0 0 0.8877,-0.74144 0.81819006,0.81819006 0 0 0 -0.7415,-0.88842 0.81819006,0.81819006 0 0 0 -0.058,-0.003 z m 4.8796,-10e-6 a 0.81819006,0.81819006 0 0 0 -0.058,0.003 0.81819006,0.81819006 0 0 0 -0.742,0.88835 0.81819006,0.81819006 0 0 0 0.8884,0.74138 0.81819006,0.81819006 0 0 0 0.7413,-0.88766 0.81819006,0.81819006 0 0 0 -0.8299,-0.74546 z m 4.9388,4e-5 a 0.81819006,0.81819006 0 0 0 -0.8304,0.74506 0.81819006,0.81819006 0 0 0 0.7411,0.88814 0.81819006,0.81819006 0 0 0 0.8884,-0.74145 0.81819006,0.81819006 0 0 0 -0.7426,-0.88787 0.81819006,0.81819006 0 0 0 -0.058,-0.003 z m 4.8796,-2e-5 a 0.81819006,0.81819006 0 0 0 -0.059,0.003 0.81819006,0.81819006 0 0 0 -0.7412,0.88833 0.81819006,0.81819006 0 0 0 0.8881,0.7411 0.81819006,0.81819006 0 0 0 0.7418,-0.88775 0.81819006,0.81819006 0 0 0 -0.8298,-0.74547 z m 4.9387,4e-5 a 0.81819006,0.81819006 0 0 0 -0.8303,0.74507 0.81819006,0.81819006 0 0 0 0.7422,0.88759 0.81819006,0.81819006 0 0 0 0.8877,-0.74144 0.81819006,0.81819006 0 0 0 -0.7414,-0.88836 0.81819006,0.81819006 0 0 0 -0.059,-0.003 z m -93.303,4.90915 a 0.81819006,0.81819006 0 0 0 -0.058,0.003 0.81819006,0.81819006 0 0 0 -0.7421,0.88842 0.81819006,0.81819006 0 0 0 0.8884,0.7414 0.81819006,0.81819006 0 0 0 0.7414,-0.88775 0.81819006,0.81819006 0 0 0 -0.8295,-0.74522 z m 4.9382,0 a 0.81819006,0.81819006 0 0 0 -0.8302,0.74514 0.81819006,0.81819006 0 0 0 0.7421,0.88753 0.81819006,0.81819006 0 0 0 0.8885,-0.74152 0.81819006,0.81819006 0 0 0 -0.7425,-0.88789 0.81819006,0.81819006 0 0 0 -0.059,-0.003 z m 4.8796,-3e-5 a 0.81819006,0.81819006 0 0 0 -0.058,0.003 0.81819006,0.81819006 0 0 0 -0.7422,0.88843 0.81819006,0.81819006 0 0 0 0.8881,0.74109 0.81819006,0.81819006 0 0 0 0.7421,-0.88774 0.81819006,0.81819006 0 0 0 -0.8308,-0.7447 z m 4.9388,3e-5 a 0.81819006,0.81819006 0 0 0 -0.8305,0.74514 0.81819006,0.81819006 0 0 0 0.7425,0.88758 0.81819006,0.81819006 0 0 0 0.8877,-0.74144 0.81819006,0.81819006 0 0 0 -0.7417,-0.88873 0.81819006,0.81819006 0 0 0 -0.058,-0.003 z m 4.8796,-3e-5 a 0.81819006,0.81819006 0 0 0 -0.059,0.003 0.81819006,0.81819006 0 0 0 -0.7415,0.88843 0.81819006,0.81819006 0 0 0 0.8881,0.74109 0.81819006,0.81819006 0 0 0 0.742,-0.88781 0.81819006,0.81819006 0 0 0 -0.8299,-0.74549 z m 4.9389,6e-5 a 0.81819006,0.81819006 0 0 0 -0.8298,0.74514 0.81819006,0.81819006 0 0 0 0.7411,0.88813 0.81819006,0.81819006 0 0 0 0.8883,-0.74152 0.81819006,0.81819006 0 0 0 -0.7417,-0.88868 0.81819006,0.81819006 0 0 0 -0.058,-0.003 z m 4.8795,-3e-5 a 0.81819006,0.81819006 0 0 0 -0.058,0.003 0.81819006,0.81819006 0 0 0 -0.7418,0.88842 0.81819006,0.81819006 0 0 0 0.8883,0.7414 0.81819006,0.81819006 0 0 0 0.7415,-0.88775 0.81819006,0.81819006 0 0 0 -0.83,-0.74547 z m 4.9386,4e-5 a 0.81819006,0.81819006 0 0 0 -0.8302,0.74507 0.81819006,0.81819006 0 0 0 0.7423,0.88759 0.81819006,0.81819006 0 0 0 0.8877,-0.74144 0.81819006,0.81819006 0 0 0 -0.7414,-0.88837 0.81819006,0.81819006 0 0 0 -0.059,-0.003 z m 4.8797,-10e-6 a 0.81819006,0.81819006 0 0 0 -0.059,0.003 0.81819006,0.81819006 0 0 0 -0.7413,0.88833 0.81819006,0.81819006 0 0 0 0.8881,0.74111 0.81819006,0.81819006 0 0 0 0.7419,-0.88775 0.81819006,0.81819006 0 0 0 -0.83,-0.74547 z m 4.9383,0 a 0.81819006,0.81819006 0 0 0 -0.8297,0.74514 0.81819006,0.81819006 0 0 0 0.741,0.88806 0.81819006,0.81819006 0 0 0 0.8885,-0.74143 0.81819006,0.81819006 0 0 0 -0.7417,-0.88868 0.81819006,0.81819006 0 0 0 -0.059,-0.003 z m 4.8801,2e-5 a 0.81819006,0.81819006 0 0 0 -0.059,0.003 0.81819006,0.81819006 0 0 0 -0.742,0.88849 0.81819006,0.81819006 0 0 0 0.8884,0.7414 0.81819006,0.81819006 0 0 0 0.7414,-0.88783 0.81819006,0.81819006 0 0 0 -0.8296,-0.74523 z m 4.9381,-1e-5 a 0.81819006,0.81819006 0 0 0 -0.8303,0.74515 0.81819006,0.81819006 0 0 0 0.7422,0.88752 0.81819006,0.81819006 0 0 0 0.8878,-0.74143 0.81819006,0.81819006 0 0 0 -0.7414,-0.88838 0.81819006,0.81819006 0 0 0 -0.058,-0.003 z m 4.8797,-10e-6 a 0.81819006,0.81819006 0 0 0 -0.058,0.003 0.81819006,0.81819006 0 0 0 -0.742,0.88833 0.81819006,0.81819006 0 0 0 0.8881,0.74111 0.81819006,0.81819006 0 0 0 0.7421,-0.88775 0.81819006,0.81819006 0 0 0 -0.8308,-0.74468 z m 4.9395,-3e-5 a 0.81819006,0.81819006 0 0 0 -0.8306,0.74514 0.81819006,0.81819006 0 0 0 0.7413,0.88808 0.81819006,0.81819006 0 0 0 0.8882,-0.74144 0.81819006,0.81819006 0 0 0 -0.7417,-0.88874 0.81819006,0.81819006 0 0 0 -0.058,-0.003 z m 4.8795,-2e-5 a 0.81819006,0.81819006 0 0 0 -0.058,0.003 0.81819006,0.81819006 0 0 0 -0.742,0.88844 0.81819006,0.81819006 0 0 0 0.8882,0.74145 0.81819006,0.81819006 0 0 0 0.7416,-0.88775 0.81819006,0.81819006 0 0 0 -0.8296,-0.74517 z m 4.9382,0 a 0.81819006,0.81819006 0 0 0 -0.8305,0.74515 0.81819006,0.81819006 0 0 0 0.7424,0.88758 0.81819006,0.81819006 0 0 0 0.8877,-0.74143 0.81819006,0.81819006 0 0 0 -0.7415,-0.88846 0.81819006,0.81819006 0 0 0 -0.058,-0.003 z m 4.8795,7e-5 a 0.81819006,0.81819006 0 0 0 -0.058,0.003 0.81819006,0.81819006 0 0 0 -0.7419,0.88833 0.81819006,0.81819006 0 0 0 0.8873,0.74195 0.81819006,0.81819006 0 0 0 0.7419,-0.88783 0.81819006,0.81819006 0 0 0 -0.8299,-0.74547 z m 4.9389,-4e-5 a 0.81819006,0.81819006 0 0 0 -0.8306,0.74515 0.81819006,0.81819006 0 0 0 0.7425,0.88757 0.81819006,0.81819006 0 0 0 0.8877,-0.74142 0.81819006,0.81819006 0 0 0 -0.7418,-0.88874 0.81819006,0.81819006 0 0 0 -0.058,-0.003 z m 4.8796,-3e-5 a 0.81819006,0.81819006 0 0 0 -0.059,0.003 0.81819006,0.81819006 0 0 0 -0.7414,0.88844 0.81819006,0.81819006 0 0 0 0.8882,0.74109 0.81819006,0.81819006 0 0 0 0.7419,-0.88783 0.81819006,0.81819006 0 0 0 -0.8298,-0.74548 z m 4.9388,5e-5 a 0.81819006,0.81819006 0 0 0 -0.8298,0.74514 0.81819006,0.81819006 0 0 0 0.7411,0.88808 0.81819006,0.81819006 0 0 0 0.8883,-0.74135 0.81819006,0.81819006 0 0 0 -0.7416,-0.88869 0.81819006,0.81819006 0 0 0 -0.059,-0.003 z"
         style="opacity:1;vector-effect:none;fill:#f0f0f0;fill-opacity:1;fill-rule:nonzero;stroke:none;stroke-width:0.63216919;stroke-linecap:square;stroke-linejoin:miter;stroke-miterlimit:4;stroke-dasharray:none;stroke-dashoffset:0;stroke-opacity:1;paint-order:normal" />
      <g
         transform="translate(-881.2647,-145.81739)"
         id="g7375">
        <rect
           ry="2.6458333"
           style="fill:#969696;fill-opacity:1;stroke-width:0.08669141"
           id="rect5970-6"
           width="66.145836"
           height="84.666664"
           x="7339.0112"
           y="553.22137"
           inkscape:export-filename="/media/im/IMRON1/PRODUCT/WEB/tawon/tawon-code/images/1.png"
           inkscape:export-xdpi="96"
           inkscape:export-ydpi="96" />
        <text
           xml:space="preserve"
           style="font-style:normal;font-variant:normal;font-weight:bold;font-stretch:normal;font-size:43.09677124px;line-height:1.25;font-family:Heebo;-inkscape-font-specification:'Heebo Bold';text-align:center;letter-spacing:0px;word-spacing:0.12929028px;text-anchor:middle;fill:#ffffff;fill-opacity:1;stroke:none;stroke-width:3.23225784"
           x="7374.2202"
           y="610.88477"
           id="text6015-8"><tspan
             sodipodi:role="line"
             id="tspan6013-7"
             x="7374.2202"
             y="610.88477"
             style="fill:#ffffff;stroke-width:3.23225784">1</tspan></text>
      </g>
    </g>
  </g>
</svg>
