<?xml version="1.0" encoding="UTF-8" standalone="no"?>
<!-- Created with Inkscape (http://www.inkscape.org/) -->

<svg
   xmlns:dc="http://purl.org/dc/elements/1.1/"
   xmlns:cc="http://creativecommons.org/ns#"
   xmlns:rdf="http://www.w3.org/1999/02/22-rdf-syntax-ns#"
   xmlns:svg="http://www.w3.org/2000/svg"
   xmlns="http://www.w3.org/2000/svg"
   xmlns:sodipodi="http://sodipodi.sourceforge.net/DTD/sodipodi-0.dtd"
   xmlns:inkscape="http://www.inkscape.org/namespaces/inkscape"
   width="477.9104"
   height="323.95767"
   viewBox="0 0 126.44712 85.713803"
   version="1.1"
   id="svg8"
   sodipodi:docname="quote-icon1.svg"
   inkscape:version="0.92.3 (2405546, 2018-03-11)">
  <defs
     id="defs2" />
  <sodipodi:namedview
     id="base"
     pagecolor="#ffffff"
     bordercolor="#666666"
     borderopacity="1.0"
     inkscape:pageopacity="0.0"
     inkscape:pageshadow="2"
     inkscape:zoom="0.98994949"
     inkscape:cx="279.00236"
     inkscape:cy="220.4672"
     inkscape:document-units="px"
     inkscape:current-layer="layer1"
     showgrid="false"
     inkscape:pagecheckerboard="true"
     showborder="true"
     units="px"
     inkscape:window-width="1366"
     inkscape:window-height="696"
     inkscape:window-x="0"
     inkscape:window-y="0"
     inkscape:window-maximized="1"
     fit-margin-top="0"
     fit-margin-left="0"
     fit-margin-right="0"
     fit-margin-bottom="0" />
  <metadata
     id="metadata5">
    <rdf:RDF>
      <cc:Work
         rdf:about="">
        <dc:format>image/svg+xml</dc:format>
        <dc:type
           rdf:resource="http://purl.org/dc/dcmitype/StillImage" />
        <dc:title></dc:title>
      </cc:Work>
    </rdf:RDF>
  </metadata>
  <g
     inkscape:label="Layer 1"
     inkscape:groupmode="layer"
     id="layer1"
     transform="translate(158.47356,-85.603093)">
    <path
       inkscape:connector-curvature="0"
       style="opacity:1;vector-effect:none;fill:#cccccc;fill-opacity:1;fill-rule:nonzero;stroke:none;stroke-width:1.22120476;stroke-linecap:square;stroke-linejoin:miter;stroke-miterlimit:4;stroke-dasharray:none;stroke-dashoffset:0;stroke-opacity:1;paint-order:normal"
       d="m -128.4687,85.603504 -0.003,0.0071 a 1.5805539,1.5805539 0 0 0 -0.11213,0 1.5805539,1.5805539 0 0 0 -1.43198,1.716167 1.5805539,1.5805539 0 0 0 1.71567,1.431449 1.5805539,1.5805539 0 0 0 1.43298,-1.715162 1.5805539,1.5805539 0 0 0 -1.60301,-1.439704 z m 75.864111,0.0026 v 0.0058 a 1.5805539,1.5805539 0 0 0 -0.11113,0 1.5805539,1.5805539 0 0 0 -1.43348,1.716167 1.5805539,1.5805539 0 0 0 1.71564,1.431449 1.5805539,1.5805539 0 0 0 1.43351,-1.714633 1.5805539,1.5805539 0 0 0 -1.60507,-1.438672 z m -18.964725,0 v 0.0053 a 1.5805539,1.5805539 0 0 0 -0.110569,0 1.5805539,1.5805539 0 0 0 -1.433513,1.716167 1.5805539,1.5805539 0 0 0 1.716167,1.431951 1.5805539,1.5805539 0 0 0 1.433513,-1.714632 1.5805539,1.5805539 0 0 0 -1.605069,-1.438672 z m -66.326706,0.0053 a 1.5805539,1.5805539 0 0 0 -1.60456,1.439174 1.5805539,1.5805539 0 0 0 1.43404,1.714633 1.5805539,1.5805539 0 0 0 1.71513,-1.431952 1.5805539,1.5805539 0 0 0 -1.43454,-1.715664 1.5805539,1.5805539 0 0 0 -0.1111,0 z m 18.96526,0 a 1.5805539,1.5805539 0 0 0 -1.60301,1.439174 1.5805539,1.5805539 0 0 0 1.43195,1.715665 1.5805539,1.5805539 0 0 0 1.71617,-1.431952 1.5805539,1.5805539 0 0 0 -1.43245,-1.716696 1.5805539,1.5805539 0 0 0 -0.11369,0 z m 56.90039,0 a 1.5805539,1.5805539 0 0 0 -1.603508,1.439174 1.5805539,1.5805539 0 0 0 1.433486,1.714633 1.5805539,1.5805539 0 0 0 1.715162,-1.432481 1.5805539,1.5805539 0 0 0 -1.432481,-1.716167 1.5805539,1.5805539 0 0 0 -0.11213,0 z m 18.968351,0 a 1.5805539,1.5805539 0 0 0 -1.60404,1.439174 1.5805539,1.5805539 0 0 0 1.43195,1.715665 1.5805539,1.5805539 0 0 0 1.7162,-1.432481 1.5805539,1.5805539 0 0 0 -0.1845,-0.890879 c -0.37309,-0.278897 -0.75329,-0.548587 -1.13948,-0.810286 a 1.5805539,1.5805539 0 0 0 -0.1111,-0.01402 1.5805539,1.5805539 0 0 0 -0.1111,0 z m -103.881501,0.06355 c -0.70337,0.47969 -1.38473,0.98933 -2.0438,1.525482 a 1.5805539,1.5805539 0 0 0 0.006,0.126629 1.5805539,1.5805539 0 0 0 1.71619,1.432455 1.5805539,1.5805539 0 0 0 1.43241,-1.715135 1.5805539,1.5805539 0 0 0 -1.11051,-1.369431 z m 35.88927,1.480529 a 1.5805539,1.5805539 0 0 0 0.004,0.172085 1.5805539,1.5805539 0 0 0 1.7162,1.431952 1.5805539,1.5805539 0 0 0 0.0951,-0.01349 c -0.58319,-0.554117 -1.18927,-1.08413 -1.81535,-1.590596 z m 31.381542,0.85008 c -0.224869,0.198861 -0.44622,0.40177 -0.665083,0.607192 a 1.5805539,1.5805539 0 0 0 0.665083,-0.607192 z m -67.763312,7.081732 v 0.0077 a 1.5805539,1.5805539 0 0 0 -0.1111,0 1.5805539,1.5805539 0 0 0 -1.43351,1.715665 1.5805539,1.5805539 0 0 0 1.71567,1.431951 1.5805539,1.5805539 0 0 0 1.43351,-1.715135 1.5805539,1.5805539 0 0 0 -1.60354,-1.440233 z m 18.96732,0 -0.003,0.0071 a 1.5805539,1.5805539 0 0 0 -0.11213,0 1.5805539,1.5805539 0 0 0 -1.43198,1.716167 1.5805539,1.5805539 0 0 0 1.71567,1.431449 1.5805539,1.5805539 0 0 0 1.43298,-1.714632 1.5805539,1.5805539 0 0 0 -1.60301,-1.440233 z m 18.96629,0 v 0.0071 a 1.5805539,1.5805539 0 0 0 -0.11057,0 1.5805539,1.5805539 0 0 0 -1.43352,1.715664 1.5805539,1.5805539 0 0 0 1.71617,1.432481 1.5805539,1.5805539 0 0 0 1.43195,-1.715161 1.5805539,1.5805539 0 0 0 -1.603,-1.440207 z m 37.934128,0 -0.0026,0.0061 a 1.5805539,1.5805539 0 0 0 -0.110569,0 1.5805539,1.5805539 0 0 0 -1.433513,1.716167 1.5805539,1.5805539 0 0 0 1.716167,1.43248 1.5805539,1.5805539 0 0 0 1.431952,-1.715161 1.5805539,1.5805539 0 0 0 -1.602476,-1.439704 z m 18.964723,0 v 0.0061 a 1.5805539,1.5805539 0 0 0 -0.11112,0 1.5805539,1.5805539 0 0 0 -1.43246,1.715664 1.5805539,1.5805539 0 0 0 1.71567,1.431449 1.5805539,1.5805539 0 0 0 1.43348,-1.714632 1.5805539,1.5805539 0 0 0 -1.60507,-1.438672 z m -66.327201,0.0056 a 1.5805539,1.5805539 0 0 0 -1.60301,1.439704 1.5805539,1.5805539 0 0 0 1.43195,1.715664 1.5805539,1.5805539 0 0 0 1.71617,-1.432481 1.5805539,1.5805539 0 0 0 -1.43245,-1.716696 1.5805539,1.5805539 0 0 0 -0.11369,0 z m 37.935136,0 a 1.5805539,1.5805539 0 0 0 -1.604037,1.439704 1.5805539,1.5805539 0 0 0 1.431449,1.715664 1.5805539,1.5805539 0 0 0 1.716167,-1.432481 1.5805539,1.5805539 0 0 0 -1.432481,-1.716696 1.5805539,1.5805539 0 0 0 -0.111098,0 z m 18.965254,0 a 1.5805539,1.5805539 0 0 0 -1.603508,1.439704 1.5805539,1.5805539 0 0 0 1.433486,1.714632 1.5805539,1.5805539 0 0 0 1.715162,-1.432481 1.5805539,1.5805539 0 0 0 -1.432481,-1.716167 1.5805539,1.5805539 0 0 0 -0.11213,0 z m 18.967321,0 a 1.5805539,1.5805539 0 0 0 -1.60454,1.439704 1.5805539,1.5805539 0 0 0 1.43401,1.714632 1.5805539,1.5805539 0 0 0 1.71514,-1.432481 1.5805539,1.5805539 0 0 0 -1.43299,-1.716696 1.5805539,1.5805539 0 0 0 -0.11109,0 z m -94.832971,0 a 1.5805539,1.5805539 0 0 0 -1.60456,1.439201 1.5805539,1.5805539 0 0 0 1.43404,1.714632 1.5805539,1.5805539 0 0 0 1.71461,-1.432481 1.5805539,1.5805539 0 0 0 -1.43196,-1.716166 1.5805539,1.5805539 0 0 0 -0.11213,0 z m 104.025171,0.0164 a 1.5805539,1.5805539 0 0 0 -1.31154,1.699128 1.5805539,1.5805539 0 0 0 1.71564,1.43248 1.5805539,1.5805539 0 0 0 1.00616,-0.490405 c -0.42738,-0.90596 -0.89797,-1.787472 -1.41026,-2.641203 z m -122.128461,0.261448 c -0.52665,0.899265 -1.00812,1.828535 -1.44127,2.784845 a 1.5805539,1.5805539 0 0 0 0.40619,0.092 1.5805539,1.5805539 0 0 0 1.71617,-1.432481 1.5805539,1.5805539 0 0 0 -0.68109,-1.44436 z m 8.56279,9.197897 v 0.007 a 1.5805539,1.5805539 0 0 0 -0.11369,0 1.5805539,1.5805539 0 0 0 -1.43195,1.71619 1.5805539,1.5805539 0 0 0 1.71513,1.43142 1.5805539,1.5805539 0 0 0 1.43351,-1.71463 1.5805539,1.5805539 0 0 0 -1.603,-1.4402 z m 37.93463,0 -0.003,0.007 a 1.5805539,1.5805539 0 0 0 -0.11056,0 1.5805539,1.5805539 0 0 0 -1.43352,1.71619 1.5805539,1.5805539 0 0 0 1.71567,1.43142 1.5805539,1.5805539 0 0 0 1.43298,-1.71463 1.5805539,1.5805539 0 0 0 -1.603,-1.4402 z m 56.900401,0 v 0.007 a 1.5805539,1.5805539 0 0 0 -0.11266,0 1.5805539,1.5805539 0 0 0 -1.43196,1.71619 1.5805539,1.5805539 0 0 0 1.71567,1.43142 1.5805539,1.5805539 0 0 0 1.43298,-1.71463 1.5805539,1.5805539 0 0 0 -1.603,-1.4402 z m -18.968857,0 v 0.007 a 1.5805539,1.5805539 0 0 0 -0.111098,0 1.5805539,1.5805539 0 0 0 -1.432984,1.71619 1.5805539,1.5805539 0 0 0 1.716167,1.43195 1.5805539,1.5805539 0 0 0 1.431952,-1.71463 1.5805539,1.5805539 0 0 0 -1.603508,-1.44023 z m 37.934107,0 v 0.007 a 1.5805539,1.5805539 0 0 0 -0.11369,0 1.5805539,1.5805539 0 0 0 -1.43351,1.71513 1.5805539,1.5805539 0 0 0 1.71669,1.43248 1.5805539,1.5805539 0 0 0 1.43248,-1.71463 1.5805539,1.5805539 0 0 0 -1.6025,-1.4397 z m -94.834521,0 v 0.006 a 1.5805539,1.5805539 0 0 0 -0.11319,0 1.5805539,1.5805539 0 0 0 -1.43349,1.71513 1.5805539,1.5805539 0 0 0 1.7167,1.43301 1.5805539,1.5805539 0 0 0 1.43195,-1.71516 1.5805539,1.5805539 0 0 0 -1.6025,-1.43917 z m -28.39104,0.006 a 1.5805539,1.5805539 0 0 0 -1.60454,1.4392 1.5805539,1.5805539 0 0 0 1.43351,1.7141 1.5805539,1.5805539 0 0 0 1.71617,-1.43195 1.5805539,1.5805539 0 0 0 -1.43298,-1.7167 1.5805539,1.5805539 0 0 0 -0.11113,0 z m 18.96578,0 a 1.5805539,1.5805539 0 0 0 -1.60456,1.4392 1.5805539,1.5805539 0 0 0 1.43404,1.71461 1.5805539,1.5805539 0 0 0 1.71513,-1.43196 1.5805539,1.5805539 0 0 0 -1.43248,-1.71616 1.5805539,1.5805539 0 0 0 -0.11213,0 z m 18.96679,0 a 1.5805539,1.5805539 0 0 0 -1.60454,1.4392 1.5805539,1.5805539 0 0 0 1.43402,1.71461 1.5805539,1.5805539 0 0 0 1.71513,-1.43196 1.5805539,1.5805539 0 0 0 -1.43298,-1.71667 1.5805539,1.5805539 0 0 0 -0.1111,0 z m 37.933103,0 a 1.5805539,1.5805539 0 0 0 -1.603534,1.4392 1.5805539,1.5805539 0 0 0 1.434015,1.71461 1.5805539,1.5805539 0 0 0 1.714633,-1.43246 1.5805539,1.5805539 0 0 0 -1.432984,-1.7167 1.5805539,1.5805539 0 0 0 -0.111098,0 z m 18.965757,0 a 1.5805539,1.5805539 0 0 0 -1.602476,1.4392 1.5805539,1.5805539 0 0 0 1.431422,1.71566 1.5805539,1.5805539 0 0 0 1.716194,-1.43197 1.5805539,1.5805539 0 0 0 -1.432481,-1.7172 1.5805539,1.5805539 0 0 0 -0.113691,0 z m 18.967321,0 a 1.5805539,1.5805539 0 0 0 -1.60404,1.4392 1.5805539,1.5805539 0 0 0 1.43351,1.71461 1.5805539,1.5805539 0 0 0 1.71514,-1.43196 1.5805539,1.5805539 0 0 0 -1.43248,-1.71667 1.5805539,1.5805539 0 0 0 -0.11057,0 z m -57.383581,0.0672 a 1.5805539,1.5805539 0 0 0 -1.11982,1.37202 1.5805539,1.5805539 0 0 0 1.43142,1.71567 1.5805539,1.5805539 0 0 0 0.140576,0.006 c -0.0984,-1.04775 -0.249266,-2.0801 -0.452176,-3.09388 z m 11.100094,0.43823 c -0.14687,0.79584 -0.261858,1.60298 -0.345202,2.42001 a 1.5805539,1.5805539 0 0 0 0.757582,-1.4914 1.5805539,1.5805539 0 0 0 -0.41238,-0.92861 z m -58.089984,8.97051 v 0.007 a 1.5805539,1.5805539 0 0 0 -0.11369,0 1.5805539,1.5805539 0 0 0 -1.43195,1.7162 1.5805539,1.5805539 0 0 0 1.71513,1.43195 1.5805539,1.5805539 0 0 0 1.43351,-1.71516 1.5805539,1.5805539 0 0 0 -1.603,-1.44021 z m 18.96782,0 -0.003,0.007 a 1.5805539,1.5805539 0 0 0 -0.1111,0 1.5805539,1.5805539 0 0 0 -1.43301,1.71514 1.5805539,1.5805539 0 0 0 1.7167,1.43301 1.5805539,1.5805539 0 0 0 1.43248,-1.71516 1.5805539,1.5805539 0 0 0 -1.60354,-1.44021 z m 18.96422,0 v 0.006 a 1.5805539,1.5805539 0 0 0 -0.11316,0 1.5805539,1.5805539 0 0 0 -1.43248,1.71514 1.5805539,1.5805539 0 0 0 1.71463,1.43351 1.5805539,1.5805539 0 0 0 1.43351,-1.71514 1.5805539,1.5805539 0 0 0 -1.60353,-1.4397 z m 37.934134,0 v 0.006 a 1.5805539,1.5805539 0 0 0 -0.111098,0 1.5805539,1.5805539 0 0 0 -1.432984,1.71514 1.5805539,1.5805539 0 0 0 1.714103,1.43351 1.5805539,1.5805539 0 0 0 1.434016,-1.71463 1.5805539,1.5805539 0 0 0 -1.603508,-1.44021 z m 18.968347,0 v 0.006 a 1.5805539,1.5805539 0 0 0 -0.11266,0 1.5805539,1.5805539 0 0 0 -1.43348,1.71514 1.5805539,1.5805539 0 0 0 1.7172,1.43301 1.5805539,1.5805539 0 0 0 1.43195,-1.71516 1.5805539,1.5805539 0 0 0 -1.60248,-1.43918 z m 18.96576,0 v 0.006 a 1.5805539,1.5805539 0 0 0 -0.11113,0 1.5805539,1.5805539 0 0 0 -1.43298,1.71514 1.5805539,1.5805539 0 0 0 1.71463,1.43351 1.5805539,1.5805539 0 0 0 1.43299,-1.71514 1.5805539,1.5805539 0 0 0 -1.60301,-1.4397 z m -123.226591,0.006 a 1.5805539,1.5805539 0 0 0 -1.60404,1.4392 1.5805539,1.5805539 0 0 0 1.43351,1.71514 1.5805539,1.5805539 0 0 0 1.71464,-1.43352 1.5805539,1.5805539 0 0 0 -1.43352,-1.7146 1.5805539,1.5805539 0 0 0 -0.11109,0 z m 18.96681,0 a 1.5805539,1.5805539 0 0 0 -1.603,1.4397 1.5805539,1.5805539 0 0 0 1.43195,1.71567 1.5805539,1.5805539 0 0 0 1.71566,-1.43351 1.5805539,1.5805539 0 0 0 -1.43351,-1.71461 1.5805539,1.5805539 0 0 0 -0.11266,0 z m 18.96679,0 a 1.5805539,1.5805539 0 0 0 -1.60454,1.4397 1.5805539,1.5805539 0 0 0 1.43402,1.71464 1.5805539,1.5805539 0 0 0 1.71513,-1.43352 1.5805539,1.5805539 0 0 0 -1.43195,-1.71563 1.5805539,1.5805539 0 0 0 -0.11369,0 z m 37.932071,0 a 1.5805539,1.5805539 0 0 0 -1.603534,1.4397 1.5805539,1.5805539 0 0 0 1.433513,1.71464 1.5805539,1.5805539 0 0 0 1.715135,-1.43352 1.5805539,1.5805539 0 0 0 -1.431952,-1.71563 1.5805539,1.5805539 0 0 0 -0.11213,0 z m 18.96835,0 a 1.5805539,1.5805539 0 0 0 -1.604037,1.4397 1.5805539,1.5805539 0 0 0 1.431422,1.71514 1.5805539,1.5805539 0 0 0 1.716194,-1.43298 1.5805539,1.5805539 0 0 0 -1.434042,-1.71461 1.5805539,1.5805539 0 0 0 -0.111098,0 z m 18.96576,0 a 1.5805539,1.5805539 0 0 0 -1.60404,1.4392 1.5805539,1.5805539 0 0 0 1.43351,1.71514 1.5805539,1.5805539 0 0 0 1.71514,-1.43352 1.5805539,1.5805539 0 0 0 -1.43195,-1.71563 1.5805539,1.5805539 0 0 0 -0.1106,0 z m -57.000641,0.003 a 1.5805539,1.5805539 0 0 0 -1.50276,1.43661 1.5805539,1.5805539 0 0 0 0.98909,1.60869 c 0.22223,-1.00097 0.39426,-2.01702 0.51367,-3.0453 z m 10.173515,0.11835 c 0.03953,0.90495 0.108955,1.84084 0.205158,2.79932 a 1.5805539,1.5805539 0 0 0 0.750358,-1.48725 1.5805539,1.5805539 0 0 0 -0.955516,-1.31207 z m -57.544815,9.35551 v 0.007 a 1.5805539,1.5805539 0 0 0 -0.11213,0 1.5805539,1.5805539 0 0 0 -1.43351,1.71513 1.5805539,1.5805539 0 0 0 1.7167,1.43298 1.5805539,1.5805539 0 0 0 1.43248,-1.71513 1.5805539,1.5805539 0 0 0 -1.6025,-1.4397 z m 18.96579,0 v 0.006 a 1.5805539,1.5805539 0 0 0 -0.1111,0 1.5805539,1.5805539 0 0 0 -1.43301,1.71513 1.5805539,1.5805539 0 0 0 1.71463,1.43351 1.5805539,1.5805539 0 0 0 1.43351,-1.71516 1.5805539,1.5805539 0 0 0 -1.603,-1.4402 z m 75.867201,0 v 0.007 a 1.5805539,1.5805539 0 0 0 -0.11266,0 1.5805539,1.5805539 0 0 0 -1.43348,1.71513 1.5805539,1.5805539 0 0 0 1.7172,1.43248 1.5805539,1.5805539 0 0 0 1.43195,-1.71463 1.5805539,1.5805539 0 0 0 -1.60248,-1.4397 z m 18.96422,0 v 0.007 a 1.5805539,1.5805539 0 0 0 -0.11369,0 1.5805539,1.5805539 0 0 0 -1.43195,1.7146 1.5805539,1.5805539 0 0 0 0.98341,1.32604 c 0.55559,-0.88553 1.06344,-1.80028 1.52445,-2.73939 a 1.5805539,1.5805539 0 0 0 -0.96325,-0.30797 z m -75.866701,0 v 0.006 a 1.5805539,1.5805539 0 0 0 -0.11369,0 1.5805539,1.5805539 0 0 0 -1.43195,1.71513 1.5805539,1.5805539 0 0 0 1.7141,1.43402 1.5805539,1.5805539 0 0 0 1.43351,-1.71514 1.5805539,1.5805539 0 0 0 -1.603,-1.44023 z m 37.935166,0.003 v 0.005 a 1.5805539,1.5805539 0 0 0 -0.110569,0 1.5805539,1.5805539 0 0 0 -1.432481,1.7146 1.5805539,1.5805539 0 0 0 1.714632,1.43404 1.5805539,1.5805539 0 0 0 1.433486,-1.71463 1.5805539,1.5805539 0 0 0 -1.604539,-1.43867 z m -85.293516,0.005 a 1.5805539,1.5805539 0 0 0 -1.60454,1.4397 1.5805539,1.5805539 0 0 0 1.43401,1.7141 1.5805539,1.5805539 0 0 0 1.71514,-1.43351 1.5805539,1.5805539 0 0 0 -1.43195,-1.71564 1.5805539,1.5805539 0 0 0 -0.1111,0 z m 18.96681,0 a 1.5805539,1.5805539 0 0 0 -1.60456,1.43917 1.5805539,1.5805539 0 0 0 1.43195,1.71567 1.5805539,1.5805539 0 0 0 1.71566,-1.43352 1.5805539,1.5805539 0 0 0 -1.43351,-1.7146 1.5805539,1.5805539 0 0 0 -0.1111,0 z m 18.96629,0 a 1.5805539,1.5805539 0 0 0 -1.60404,1.43917 1.5805539,1.5805539 0 0 0 1.43402,1.71463 1.5805539,1.5805539 0 0 0 1.71513,-1.43351 1.5805539,1.5805539 0 0 0 -1.43195,-1.71564 1.5805539,1.5805539 0 0 0 -0.11369,0 z m 37.932571,0 a 1.5805539,1.5805539 0 0 0 -1.603534,1.43917 1.5805539,1.5805539 0 0 0 1.433513,1.71463 1.5805539,1.5805539 0 0 0 1.716167,-1.43351 1.5805539,1.5805539 0 0 0 -1.433513,-1.7146 1.5805539,1.5805539 0 0 0 -0.113665,0 z m 18.96835,0 a 1.5805539,1.5805539 0 0 0 -1.604037,1.43917 1.5805539,1.5805539 0 0 0 1.434015,1.71463 1.5805539,1.5805539 0 0 0 1.714633,-1.43351 1.5805539,1.5805539 0 0 0 -1.434042,-1.7146 1.5805539,1.5805539 0 0 0 -0.111099,0 z m 18.96576,0 a 1.5805539,1.5805539 0 0 0 -1.60301,1.4397 1.5805539,1.5805539 0 0 0 1.43195,1.71566 1.5805539,1.5805539 0 0 0 1.7162,-1.43404 1.5805539,1.5805539 0 0 0 -1.43405,-1.7146 1.5805539,1.5805539 0 0 0 -0.11109,0 z m -104.372441,9.4764 v 0.007 a 1.5805539,1.5805539 0 0 0 -0.1111,0 1.5805539,1.5805539 0 0 0 -1.43351,1.71463 1.5805539,1.5805539 0 0 0 1.7167,1.43249 1.5805539,1.5805539 0 0 0 1.43195,-1.71464 1.5805539,1.5805539 0 0 0 -1.60301,-1.4397 z m 75.867711,0 -0.0026,0.007 a 1.5805539,1.5805539 0 0 0 -0.11057,0 1.5805539,1.5805539 0 0 0 -1.433512,1.71463 1.5805539,1.5805539 0 0 0 1.716696,1.43248 1.5805539,1.5805539 0 0 0 1.433486,-1.71566 1.5805539,1.5805539 0 0 0 -1.604036,-1.43817 z m 18.96372,0 v 0.007 a 1.5805539,1.5805539 0 0 0 -0.11113,0 1.5805539,1.5805539 0 0 0 -1.43348,1.71463 1.5805539,1.5805539 0 0 0 1.7146,1.43402 1.5805539,1.5805539 0 0 0 1.43352,-1.71514 1.5805539,1.5805539 0 0 0 -1.60351,-1.44023 z m -75.866701,0.003 v 0.005 a 1.5805539,1.5805539 0 0 0 -0.11213,0 1.5805539,1.5805539 0 0 0 -1.43198,1.71463 1.5805539,1.5805539 0 0 0 1.71413,1.43352 1.5805539,1.5805539 0 0 0 1.43401,-1.71567 1.5805539,1.5805539 0 0 0 -1.60456,-1.43764 z m -9.42526,0.005 a 1.5805539,1.5805539 0 0 0 -1.60456,1.43817 1.5805539,1.5805539 0 0 0 1.43351,1.7167 1.5805539,1.5805539 0 0 0 1.7141,-1.43351 1.5805539,1.5805539 0 0 0 -1.43401,-1.71411 1.5805539,1.5805539 0 0 0 -0.1106,0 z m 18.96526,0 a 1.5805539,1.5805539 0 0 0 -1.60301,1.43817 1.5805539,1.5805539 0 0 0 1.43246,1.71617 1.5805539,1.5805539 0 0 0 1.71566,-1.43351 1.5805539,1.5805539 0 0 0 -1.43351,-1.71411 1.5805539,1.5805539 0 0 0 -0.11367,0 z m 37.933601,0 a 1.5805539,1.5805539 0 0 0 -1.602502,1.4392 1.5805539,1.5805539 0 0 0 1.431449,1.71567 1.5805539,1.5805539 0 0 0 1.716167,-1.43351 1.5805539,1.5805539 0 0 0 -1.434015,-1.71411 1.5805539,1.5805539 0 0 0 -0.112131,0 z m 18.966789,0 a 1.5805539,1.5805539 0 0 0 -1.603508,1.43817 1.5805539,1.5805539 0 0 0 1.432454,1.7167 1.5805539,1.5805539 0 0 0 1.715135,-1.43351 1.5805539,1.5805539 0 0 0 -1.431422,-1.71567 1.5805539,1.5805539 0 0 0 -0.113691,0 z m 18.968351,0 a 1.5805539,1.5805539 0 0 0 -1.60404,1.4392 1.5805539,1.5805539 0 0 0 0.98497,1.60661 c 0.74691,-0.46969 1.47137,-0.9674 2.16781,-1.49551 a 1.5805539,1.5805539 0 0 0 -1.43918,-1.54358 1.5805539,1.5805539 0 0 0 -0.11059,0 z m -66.933901,0.0837 a 1.5805539,1.5805539 0 0 0 -0.87487,0.74777 c 0.2971,-0.24384 0.58817,-0.49348 0.87487,-0.74777 z m -45.83183,0.33031 c 0.16557,0.41156 0.33607,0.82346 0.51212,1.23557 a 1.5805539,1.5805539 0 0 0 -0.51212,-1.23557 z m 27.35802,9.06301 v 0.006 a 1.5805539,1.5805539 0 0 0 -0.11213,0 1.5805539,1.5805539 0 0 0 -1.43248,1.71513 1.5805539,1.5805539 0 0 0 1.71463,1.43351 1.5805539,1.5805539 0 0 0 1.43349,-1.71513 1.5805539,1.5805539 0 0 0 -1.60301,-1.4397 z m -18.96782,0 v 0.005 a 1.5805539,1.5805539 0 0 0 -0.1111,0 1.5805539,1.5805539 0 0 0 -1.43351,1.71513 1.5805539,1.5805539 0 0 0 1.71463,1.43404 1.5805539,1.5805539 0 0 0 1.43351,-1.71619 1.5805539,1.5805539 0 0 0 -1.60404,-1.43814 z m 94.833491,0 v 0.005 a 1.5805539,1.5805539 0 0 0 -0.11113,0 1.5805539,1.5805539 0 0 0 -1.43245,1.71513 1.5805539,1.5805539 0 0 0 1.71461,1.43404 1.5805539,1.5805539 0 0 0 1.43351,-1.71619 1.5805539,1.5805539 0 0 0 -1.60454,-1.43814 z m -18.966816,0 v 0.004 a 1.5805539,1.5805539 0 0 0 -0.111099,0 1.5805539,1.5805539 0 0 0 -1.433512,1.71513 1.5805539,1.5805539 0 0 0 1.715161,1.43404 1.5805539,1.5805539 0 0 0 1.432455,-1.71619 1.5805539,1.5805539 0 0 0 -1.604037,-1.43711 z m -66.325145,0.004 a 1.5805539,1.5805539 0 0 0 -1.60456,1.43817 1.5805539,1.5805539 0 0 0 1.43298,1.71667 1.5805539,1.5805539 0 0 0 1.71463,-1.43349 1.5805539,1.5805539 0 0 0 -1.43142,-1.71566 1.5805539,1.5805539 0 0 0 -0.11216,0 z m 18.96679,0 a 1.5805539,1.5805539 0 0 0 -1.60454,1.43817 1.5805539,1.5805539 0 0 0 1.43246,1.71667 1.5805539,1.5805539 0 0 0 0.18243,0.005 c 0.1764,-0.9498 0.41957,-1.93162 0.74258,-2.94918 a 1.5805539,1.5805539 0 0 0 -0.64286,-0.2036 1.5805539,1.5805539 0 0 0 -0.1111,0 z m 37.933606,0 a 1.5805539,1.5805539 0 0 0 -0.02842,0 c 0.456962,0.75144 0.934165,1.49854 1.431449,2.24017 a 1.5805539,1.5805539 0 0 0 0.140547,-0.51985 1.5805539,1.5805539 0 0 0 -1.434015,-1.71463 1.5805539,1.5805539 0 0 0 -0.111099,0 z m 18.965254,0 a 1.5805539,1.5805539 0 0 0 -1.604037,1.43817 1.5805539,1.5805539 0 0 0 1.432983,1.71667 1.5805539,1.5805539 0 0 0 1.716194,-1.43349 1.5805539,1.5805539 0 0 0 -1.434042,-1.71463 1.5805539,1.5805539 0 0 0 -0.113691,0 z m -66.43833,9.47592 -0.003,0.008 a 1.5805539,1.5805539 0 0 0 -0.11213,0 1.5805539,1.5805539 0 0 0 -1.43351,1.7146 1.5805539,1.5805539 0 0 0 1.71669,1.43301 1.5805539,1.5805539 0 0 0 1.43246,-1.71619 1.5805539,1.5805539 0 0 0 -1.60198,-1.43918 z m 56.897322,0.003 v 0.006 a 1.5805539,1.5805539 0 0 0 -0.111098,0 1.5805539,1.5805539 0 0 0 -1.297596,0.92398 c 0.684053,0.70281 1.390756,1.3943 2.123387,2.07221 a 1.5805539,1.5805539 0 0 0 0.889344,-1.56374 1.5805539,1.5805539 0 0 0 -1.604539,-1.43814 z m 18.966289,0 0.003,0.006 a 1.5805539,1.5805539 0 0 0 -0.11319,0 1.5805539,1.5805539 0 0 0 -1.43245,1.7146 1.5805539,1.5805539 0 0 0 1.71461,1.43405 1.5805539,1.5805539 0 0 0 1.43301,-1.7162 1.5805539,1.5805539 0 0 0 -1.60404,-1.43814 z m -85.290931,0.006 a 1.5805539,1.5805539 0 0 0 -1.60456,1.43764 1.5805539,1.5805539 0 0 0 1.43351,1.7172 1.5805539,1.5805539 0 0 0 1.71463,-1.43352 1.5805539,1.5805539 0 0 0 -1.43145,-1.71563 1.5805539,1.5805539 0 0 0 -0.11369,0 z m 75.86565,0 a 1.5805539,1.5805539 0 0 0 -1.602476,1.43764 1.5805539,1.5805539 0 0 0 1.431952,1.71616 1.5805539,1.5805539 0 0 0 1.716696,-1.43298 1.5805539,1.5805539 0 0 0 -1.434042,-1.71463 1.5805539,1.5805539 0 0 0 -0.11213,0 z m -57.03062,0.004 a 1.5805539,1.5805539 0 0 0 -1.47278,1.43351 1.5805539,1.5805539 0 0 0 1.43349,1.7172 1.5805539,1.5805539 0 0 0 0.81341,-0.14624 c -0.34343,-0.95064 -0.6078,-1.95021 -0.77412,-3.00447 z m 66.459501,9.47229 v 0.007 a 1.5805539,1.5805539 0 0 0 -0.11266,0 1.5805539,1.5805539 0 0 0 -1.43349,1.71514 1.5805539,1.5805539 0 0 0 1.7172,1.43298 1.5805539,1.5805539 0 0 0 1.43195,-1.71617 1.5805539,1.5805539 0 0 0 -1.60197,-1.43867 z m -75.868241,0 v 0.006 a 1.5805539,1.5805539 0 0 0 -0.1111,0 1.5805539,1.5805539 0 0 0 -1.43714,1.53427 c 0.81659,0.45312 1.64804,0.89508 2.50426,1.31826 a 1.5805539,1.5805539 0 0 0 0.64852,-1.42058 1.5805539,1.5805539 0 0 0 -1.60404,-1.43817 z m 9.5405,0.006 a 1.5805539,1.5805539 0 0 0 -1.60454,1.43867 1.5805539,1.5805539 0 0 0 1.43349,1.71667 1.5805539,1.5805539 0 0 0 1.71463,-1.43348 1.5805539,1.5805539 0 0 0 -1.43142,-1.71567 1.5805539,1.5805539 0 0 0 -0.11216,0 z m 56.900421,0 a 1.5805539,1.5805539 0 0 0 -0.294561,0.0228 c 0.578564,0.36087 1.164564,0.71649 1.764744,1.06193 a 1.5805539,1.5805539 0 0 0 -1.359614,-1.07846 1.5805539,1.5805539 0 0 0 -0.111099,0 z m 18.25003,0.15761 a 1.5805539,1.5805539 0 0 0 -0.88831,1.28056 1.5805539,1.5805539 0 0 0 1.43298,1.71667 1.5805539,1.5805539 0 0 0 1.61129,-0.99838 c -0.75097,-0.6242 -1.47431,-1.28966 -2.15596,-1.99885 z m -56.184163,9.324 a 1.5805539,1.5805539 0 0 0 -0.876938,0.24752 c 0.61021,0.0438 1.226267,0.0818 1.847932,0.11369 a 1.5805539,1.5805539 0 0 0 -0.860927,-0.35295 1.5805539,1.5805539 0 0 0 -0.111099,0 z"
       id="circle8777-8-8-6-8"
       inkscape:export-filename="/media/im/IMRON1/PRODUCT/WEB/tawon/tawon-code/images/quote-icon12.png"
       inkscape:export-xdpi="96"
       inkscape:export-ydpi="96" />
  </g>
</svg>
